<svg width="198" height="22" viewBox="0 0 198 22" fill="none" xmlns="http://www.w3.org/2000/svg">
<mask id="path-1-outside-1_251_9" maskUnits="userSpaceOnUse" x="-0.629883" y="-0.013916" width="199" height="22" fill="black">
<rect fill="white" x="-0.629883" y="-0.013916" width="199" height="22"/>
<path d="M0.250117 2.77008V20.9861H4.78612V12.7061H11.7701V8.60208H4.78612V4.35408H11.7701V0.286082H4.35412L0.250117 2.77008ZM25.0541 2.77008V20.9861H20.5181V12.7061H13.3901V8.60208H20.5181V4.35408H13.3901V0.286082H20.8061L25.0541 2.77008ZM28.5678 0.250083H33.1038V5.21808H38.5038V8.56608H33.1038V17.2061H38.3598V20.9861H28.5678V0.250083ZM50.0238 7.70208L45.9198 5.21808H40.0878V8.56608H45.6318V17.2061H40.2318V20.9861H45.9198L50.0238 18.5021V7.70208ZM55.797 7.63008V18.4661L60.009 20.9501H65.697V17.0981H60.297V8.53008H65.697V5.14608H60.009L55.797 7.63008ZM76.929 7.63008V18.4661L72.717 20.9501H66.993V17.0981H72.429V8.53008H66.993V5.14608H72.717L76.929 7.63008ZM104.508 20.9861H100.008V19.3661L94.6075 20.9861V17.2061H100.008V5.25408H104.508V20.9861ZM83.0515 18.5021L87.1195 20.9861H92.9515V17.2061H87.5875V5.25408H83.0515V18.5021ZM117.832 5.25408H123.232V8.60208H117.832V5.25408ZM127.768 15.5861V18.5021L123.664 20.9861H117.832V17.2061H123.232V15.5861H127.768ZM116.212 2.77008V17.2061V20.9861L111.712 18.5021V8.60208L108.472 8.63808V7.05408L116.212 2.77008ZM143.247 5.14608V20.9501H147.747V8.53008H153.291V5.14608L147.747 6.69408V5.14608H143.247ZM165.603 5.14608L169.707 7.63008V20.9501H165.207V8.53008H159.447V20.9501H154.731V8.53008V5.14608L159.447 7.12608L164.055 5.14608H165.603ZM197.564 11.7341V7.63008L193.316 5.11008H187.556V8.49408H192.992V11.4461H187.556V14.2181H193.316L197.564 11.7341ZM197.564 15.9821H192.848V17.1701H187.556V20.9861H193.316L197.564 18.5021V15.9821ZM175.82 18.5021V7.63008L180.068 5.11008H185.792V8.49408H180.356V11.4461H185.792V14.2181H180.356V17.1701H185.792V20.9861H180.068L175.82 18.5021Z"/>
</mask>
<path d="M0.250117 2.77008V20.9861H4.78612V12.7061H11.7701V8.60208H4.78612V4.35408H11.7701V0.286082H4.35412L0.250117 2.77008ZM25.0541 2.77008V20.9861H20.5181V12.7061H13.3901V8.60208H20.5181V4.35408H13.3901V0.286082H20.8061L25.0541 2.77008ZM28.5678 0.250083H33.1038V5.21808H38.5038V8.56608H33.1038V17.2061H38.3598V20.9861H28.5678V0.250083ZM50.0238 7.70208L45.9198 5.21808H40.0878V8.56608H45.6318V17.2061H40.2318V20.9861H45.9198L50.0238 18.5021V7.70208ZM55.797 7.63008V18.4661L60.009 20.9501H65.697V17.0981H60.297V8.53008H65.697V5.14608H60.009L55.797 7.63008ZM76.929 7.63008V18.4661L72.717 20.9501H66.993V17.0981H72.429V8.53008H66.993V5.14608H72.717L76.929 7.63008ZM104.508 20.9861H100.008V19.3661L94.6075 20.9861V17.2061H100.008V5.25408H104.508V20.9861ZM83.0515 18.5021L87.1195 20.9861H92.9515V17.2061H87.5875V5.25408H83.0515V18.5021ZM117.832 5.25408H123.232V8.60208H117.832V5.25408ZM127.768 15.5861V18.5021L123.664 20.9861H117.832V17.2061H123.232V15.5861H127.768ZM116.212 2.77008V17.2061V20.9861L111.712 18.5021V8.60208L108.472 8.63808V7.05408L116.212 2.77008ZM143.247 5.14608V20.9501H147.747V8.53008H153.291V5.14608L147.747 6.69408V5.14608H143.247ZM165.603 5.14608L169.707 7.63008V20.9501H165.207V8.53008H159.447V20.9501H154.731V8.53008V5.14608L159.447 7.12608L164.055 5.14608H165.603ZM197.564 11.7341V7.63008L193.316 5.11008H187.556V8.49408H192.992V11.4461H187.556V14.2181H193.316L197.564 11.7341ZM197.564 15.9821H192.848V17.1701H187.556V20.9861H193.316L197.564 18.5021V15.9821ZM175.82 18.5021V7.63008L180.068 5.11008H185.792V8.49408H180.356V11.4461H185.792V14.2181H180.356V17.1701H185.792V20.9861H180.068L175.82 18.5021Z" fill="#6A45F2"/>
<path d="M0.250117 2.77008L0.120667 2.55621L0.000117391 2.62917V2.77008H0.250117ZM0.250117 20.9861H0.000117391V21.2361H0.250117V20.9861ZM4.78612 20.9861V21.2361H5.03612V20.9861H4.78612ZM4.78612 12.7061V12.4561H4.53612V12.7061H4.78612ZM11.7701 12.7061V12.9561H12.0201V12.7061H11.7701ZM11.7701 8.60208H12.0201V8.35208H11.7701V8.60208ZM4.78612 8.60208H4.53612V8.85208H4.78612V8.60208ZM4.78612 4.35408V4.10408H4.53612V4.35408H4.78612ZM11.7701 4.35408V4.60408H12.0201V4.35408H11.7701ZM11.7701 0.286082H12.0201V0.0360823H11.7701V0.286082ZM4.35412 0.286082V0.0360823H4.28435L4.22467 0.0722073L4.35412 0.286082ZM25.0541 2.77008H25.3041V2.62666L25.1803 2.55427L25.0541 2.77008ZM25.0541 20.9861V21.2361H25.3041V20.9861H25.0541ZM20.5181 20.9861H20.2681V21.2361H20.5181V20.9861ZM20.5181 12.7061H20.7681V12.4561H20.5181V12.7061ZM13.3901 12.7061H13.1401V12.9561H13.3901V12.7061ZM13.3901 8.60208V8.35208H13.1401V8.60208H13.3901ZM20.5181 8.60208V8.85208H20.7681V8.60208H20.5181ZM20.5181 4.35408H20.7681V4.10408H20.5181V4.35408ZM13.3901 4.35408H13.1401V4.60408H13.3901V4.35408ZM13.3901 0.286082V0.0360823H13.1401V0.286082H13.3901ZM20.8061 0.286082L20.9323 0.0702703L20.8738 0.0360823H20.8061V0.286082ZM0.250117 2.77008H0.000117391V20.9861H0.250117H0.500117V2.77008H0.250117ZM0.250117 20.9861V21.2361H4.78612V20.9861V20.7361H0.250117V20.9861ZM4.78612 20.9861H5.03612V12.7061H4.78612H4.53612V20.9861H4.78612ZM4.78612 12.7061V12.9561H11.7701V12.7061V12.4561H4.78612V12.7061ZM11.7701 12.7061H12.0201V8.60208H11.7701H11.5201V12.7061H11.7701ZM11.7701 8.60208V8.35208H4.78612V8.60208V8.85208H11.7701V8.60208ZM4.78612 8.60208H5.03612V4.35408H4.78612H4.53612V8.60208H4.78612ZM4.78612 4.35408V4.60408H11.7701V4.35408V4.10408H4.78612V4.35408ZM11.7701 4.35408H12.0201V0.286082H11.7701H11.5201V4.35408H11.7701ZM11.7701 0.286082V0.0360823H4.35412V0.286082V0.536082H11.7701V0.286082ZM4.35412 0.286082L4.22467 0.0722073L0.120667 2.55621L0.250117 2.77008L0.379568 2.98396L4.48357 0.499957L4.35412 0.286082ZM25.0541 2.77008H24.8041V20.9861H25.0541H25.3041V2.77008H25.0541ZM25.0541 20.9861V20.7361H20.5181V20.9861V21.2361H25.0541V20.9861ZM20.5181 20.9861H20.7681V12.7061H20.5181H20.2681V20.9861H20.5181ZM20.5181 12.7061V12.4561H13.3901V12.7061V12.9561H20.5181V12.7061ZM13.3901 12.7061H13.6401V8.60208H13.3901H13.1401V12.7061H13.3901ZM13.3901 8.60208V8.85208H20.5181V8.60208V8.35208H13.3901V8.60208ZM20.5181 8.60208H20.7681V4.35408H20.5181H20.2681V8.60208H20.5181ZM20.5181 4.35408V4.10408H13.3901V4.35408V4.60408H20.5181V4.35408ZM13.3901 4.35408H13.6401V0.286082H13.3901H13.1401V4.35408H13.3901ZM13.3901 0.286082V0.536082H20.8061V0.286082V0.0360823H13.3901V0.286082ZM20.8061 0.286082L20.6799 0.501894L24.9279 2.98589L25.0541 2.77008L25.1803 2.55427L20.9323 0.0702703L20.8061 0.286082ZM28.5678 0.250083V8.27312e-05H28.3178V0.250083H28.5678ZM33.1038 0.250083H33.3538V8.27312e-05H33.1038V0.250083ZM33.1038 5.21808H32.8538V5.46808H33.1038V5.21808ZM38.5038 5.21808H38.7538V4.96808H38.5038V5.21808ZM38.5038 8.56608V8.81608H38.7538V8.56608H38.5038ZM33.1038 8.56608V8.31608H32.8538V8.56608H33.1038ZM33.1038 17.2061H32.8538V17.4561H33.1038V17.2061ZM38.3598 17.2061H38.6098V16.9561H38.3598V17.2061ZM38.3598 20.9861V21.2361H38.6098V20.9861H38.3598ZM28.5678 20.9861H28.3178V21.2361H28.5678V20.9861ZM50.0238 7.70208H50.2738V7.56117L50.1532 7.48821L50.0238 7.70208ZM45.9198 5.21808L46.0492 5.00421L45.9895 4.96808H45.9198V5.21808ZM40.0878 5.21808V4.96808H39.8378V5.21808H40.0878ZM40.0878 8.56608H39.8378V8.81608H40.0878V8.56608ZM45.6318 8.56608H45.8818V8.31608H45.6318V8.56608ZM45.6318 17.2061V17.4561H45.8818V17.2061H45.6318ZM40.2318 17.2061V16.9561H39.9818V17.2061H40.2318ZM40.2318 20.9861H39.9818V21.2361H40.2318V20.9861ZM45.9198 20.9861V21.2361H45.9895L46.0492 21.2L45.9198 20.9861ZM50.0238 18.5021L50.1532 18.716L50.2738 18.643V18.5021H50.0238ZM28.5678 0.250083V0.500083H33.1038V0.250083V8.27312e-05H28.5678V0.250083ZM33.1038 0.250083H32.8538V5.21808H33.1038H33.3538V0.250083H33.1038ZM33.1038 5.21808V5.46808H38.5038V5.21808V4.96808H33.1038V5.21808ZM38.5038 5.21808H38.2538V8.56608H38.5038H38.7538V5.21808H38.5038ZM38.5038 8.56608V8.31608H33.1038V8.56608V8.81608H38.5038V8.56608ZM33.1038 8.56608H32.8538V17.2061H33.1038H33.3538V8.56608H33.1038ZM33.1038 17.2061V17.4561H38.3598V17.2061V16.9561H33.1038V17.2061ZM38.3598 17.2061H38.1098V20.9861H38.3598H38.6098V17.2061H38.3598ZM38.3598 20.9861V20.7361H28.5678V20.9861V21.2361H38.3598V20.9861ZM28.5678 20.9861H28.8178V0.250083H28.5678H28.3178V20.9861H28.5678ZM50.0238 7.70208L50.1532 7.48821L46.0492 5.00421L45.9198 5.21808L45.7903 5.43196L49.8943 7.91596L50.0238 7.70208ZM45.9198 5.21808V4.96808H40.0878V5.21808V5.46808H45.9198V5.21808ZM40.0878 5.21808H39.8378V8.56608H40.0878H40.3378V5.21808H40.0878ZM40.0878 8.56608V8.81608H45.6318V8.56608V8.31608H40.0878V8.56608ZM45.6318 8.56608H45.3818V17.2061H45.6318H45.8818V8.56608H45.6318ZM45.6318 17.2061V16.9561H40.2318V17.2061V17.4561H45.6318V17.2061ZM40.2318 17.2061H39.9818V20.9861H40.2318H40.4818V17.2061H40.2318ZM40.2318 20.9861V21.2361H45.9198V20.9861V20.7361H40.2318V20.9861ZM45.9198 20.9861L46.0492 21.2L50.1532 18.716L50.0238 18.5021L49.8943 18.2882L45.7903 20.7722L45.9198 20.9861ZM50.0238 18.5021H50.2738V7.70208H50.0238H49.7738V18.5021H50.0238ZM55.797 7.63008L55.67 7.41474L55.547 7.48728V7.63008H55.797ZM55.797 18.4661H55.547V18.6089L55.67 18.6814L55.797 18.4661ZM60.009 20.9501L59.882 21.1654L59.9408 21.2001H60.009V20.9501ZM65.697 20.9501V21.2001H65.947V20.9501H65.697ZM65.697 17.0981H65.947V16.8481H65.697V17.0981ZM60.297 17.0981H60.047V17.3481H60.297V17.0981ZM60.297 8.53008V8.28008H60.047V8.53008H60.297ZM65.697 8.53008V8.78008H65.947V8.53008H65.697ZM65.697 5.14608H65.947V4.89608H65.697V5.14608ZM60.009 5.14608V4.89608H59.9408L59.882 4.93074L60.009 5.14608ZM76.929 7.63008H77.179V7.48728L77.056 7.41474L76.929 7.63008ZM76.929 18.4661L77.056 18.6814L77.179 18.6089V18.4661H76.929ZM72.717 20.9501V21.2001H72.7852L72.844 21.1654L72.717 20.9501ZM66.993 20.9501H66.743V21.2001H66.993V20.9501ZM66.993 17.0981V16.8481H66.743V17.0981H66.993ZM72.429 17.0981V17.3481H72.679V17.0981H72.429ZM72.429 8.53008H72.679V8.28008H72.429V8.53008ZM66.993 8.53008H66.743V8.78008H66.993V8.53008ZM66.993 5.14608V4.89608H66.743V5.14608H66.993ZM72.717 5.14608L72.844 4.93074L72.7852 4.89608H72.717V5.14608ZM55.797 7.63008H55.547V18.4661H55.797H56.047V7.63008H55.797ZM55.797 18.4661L55.67 18.6814L59.882 21.1654L60.009 20.9501L60.136 20.7347L55.924 18.2507L55.797 18.4661ZM60.009 20.9501V21.2001H65.697V20.9501V20.7001H60.009V20.9501ZM65.697 20.9501H65.947V17.0981H65.697H65.447V20.9501H65.697ZM65.697 17.0981V16.8481H60.297V17.0981V17.3481H65.697V17.0981ZM60.297 17.0981H60.547V8.53008H60.297H60.047V17.0981H60.297ZM60.297 8.53008V8.78008H65.697V8.53008V8.28008H60.297V8.53008ZM65.697 8.53008H65.947V5.14608H65.697H65.447V8.53008H65.697ZM65.697 5.14608V4.89608H60.009V5.14608V5.39608H65.697V5.14608ZM60.009 5.14608L59.882 4.93074L55.67 7.41474L55.797 7.63008L55.924 7.84542L60.136 5.36142L60.009 5.14608ZM76.929 7.63008H76.679V18.4661H76.929H77.179V7.63008H76.929ZM76.929 18.4661L76.802 18.2507L72.59 20.7347L72.717 20.9501L72.844 21.1654L77.056 18.6814L76.929 18.4661ZM72.717 20.9501V20.7001H66.993V20.9501V21.2001H72.717V20.9501ZM66.993 20.9501H67.243V17.0981H66.993H66.743V20.9501H66.993ZM66.993 17.0981V17.3481H72.429V17.0981V16.8481H66.993V17.0981ZM72.429 17.0981H72.679V8.53008H72.429H72.179V17.0981H72.429ZM72.429 8.53008V8.28008H66.993V8.53008V8.78008H72.429V8.53008ZM66.993 8.53008H67.243V5.14608H66.993H66.743V8.53008H66.993ZM66.993 5.14608V5.39608H72.717V5.14608V4.89608H66.993V5.14608ZM72.717 5.14608L72.59 5.36142L76.802 7.84542L76.929 7.63008L77.056 7.41474L72.844 4.93074L72.717 5.14608ZM104.508 20.9861V21.2361H104.758V20.9861H104.508ZM100.008 20.9861H99.7575V21.2361H100.008V20.9861ZM100.008 19.3661H100.258V19.0301L99.9357 19.1266L100.008 19.3661ZM94.6075 20.9861H94.3575V21.3221L94.6794 21.2255L94.6075 20.9861ZM94.6075 17.2061V16.9561H94.3575V17.2061H94.6075ZM100.008 17.2061V17.4561H100.258V17.2061H100.008ZM100.008 5.25408V5.00408H99.7575V5.25408H100.008ZM104.508 5.25408H104.758V5.00408H104.508V5.25408ZM83.0515 18.5021H82.8015V18.6424L82.9212 18.7155L83.0515 18.5021ZM87.1195 20.9861L86.9892 21.1995L87.0492 21.2361H87.1195V20.9861ZM92.9515 20.9861V21.2361H93.2015V20.9861H92.9515ZM92.9515 17.2061H93.2015V16.9561H92.9515V17.2061ZM87.5875 17.2061H87.3375V17.4561H87.5875V17.2061ZM87.5875 5.25408H87.8375V5.00408H87.5875V5.25408ZM83.0515 5.25408V5.00408H82.8015V5.25408H83.0515ZM104.508 20.9861V20.7361H100.008V20.9861V21.2361H104.508V20.9861ZM100.008 20.9861H100.258V19.3661H100.008H99.7575V20.9861H100.008ZM100.008 19.3661L99.9357 19.1266L94.5357 20.7466L94.6075 20.9861L94.6794 21.2255L100.079 19.6055L100.008 19.3661ZM94.6075 20.9861H94.8575V17.2061H94.6075H94.3575V20.9861H94.6075ZM94.6075 17.2061V17.4561H100.008V17.2061V16.9561H94.6075V17.2061ZM100.008 17.2061H100.258V5.25408H100.008H99.7575V17.2061H100.008ZM100.008 5.25408V5.50408H104.508V5.25408V5.00408H100.008V5.25408ZM104.508 5.25408H104.258V20.9861H104.508H104.758V5.25408H104.508ZM83.0515 18.5021L82.9212 18.7155L86.9892 21.1995L87.1195 20.9861L87.2498 20.7727L83.1818 18.2887L83.0515 18.5021ZM87.1195 20.9861V21.2361H92.9515V20.9861V20.7361H87.1195V20.9861ZM92.9515 20.9861H93.2015V17.2061H92.9515H92.7015V20.9861H92.9515ZM92.9515 17.2061V16.9561H87.5875V17.2061V17.4561H92.9515V17.2061ZM87.5875 17.2061H87.8375V5.25408H87.5875H87.3375V17.2061H87.5875ZM87.5875 5.25408V5.00408H83.0515V5.25408V5.50408H87.5875V5.25408ZM83.0515 5.25408H82.8015V18.5021H83.0515H83.3015V5.25408H83.0515ZM117.832 5.25408V5.00408H117.582V5.25408H117.832ZM123.232 5.25408H123.482V5.00408H123.232V5.25408ZM123.232 8.60208V8.85208H123.482V8.60208H123.232ZM117.832 8.60208H117.582V8.85208H117.832V8.60208ZM127.768 15.5861H128.018V15.3361H127.768V15.5861ZM127.768 18.5021L127.898 18.716L128.018 18.643V18.5021H127.768ZM123.664 20.9861V21.2361H123.734L123.794 21.2L123.664 20.9861ZM117.832 20.9861H117.582V21.2361H117.832V20.9861ZM117.832 17.2061V16.9561H117.582V17.2061H117.832ZM123.232 17.2061V17.4561H123.482V17.2061H123.232ZM123.232 15.5861V15.3361H122.982V15.5861H123.232ZM116.212 2.77008H116.462V2.34597L116.091 2.55135L116.212 2.77008ZM116.212 20.9861L116.091 21.205L116.462 21.4096V20.9861H116.212ZM111.712 18.5021H111.462V18.6496L111.591 18.721L111.712 18.5021ZM111.712 8.60208H111.962V8.34929L111.71 8.3521L111.712 8.60208ZM108.472 8.63808H108.222V8.89088L108.475 8.88807L108.472 8.63808ZM108.472 7.05408L108.351 6.83535L108.222 6.90672V7.05408H108.472ZM117.832 5.25408V5.50408H123.232V5.25408V5.00408H117.832V5.25408ZM123.232 5.25408H122.982V8.60208H123.232H123.482V5.25408H123.232ZM123.232 8.60208V8.35208H117.832V8.60208V8.85208H123.232V8.60208ZM117.832 8.60208H118.082V5.25408H117.832H117.582V8.60208H117.832ZM127.768 15.5861H127.518V18.5021H127.768H128.018V15.5861H127.768ZM127.768 18.5021L127.639 18.2882L123.535 20.7722L123.664 20.9861L123.794 21.2L127.898 18.716L127.768 18.5021ZM123.664 20.9861V20.7361H117.832V20.9861V21.2361H123.664V20.9861ZM117.832 20.9861H118.082V17.2061H117.832H117.582V20.9861H117.832ZM117.832 17.2061V17.4561H123.232V17.2061V16.9561H117.832V17.2061ZM123.232 17.2061H123.482V15.5861H123.232H122.982V17.2061H123.232ZM123.232 15.5861V15.8361H127.768V15.5861V15.3361H123.232V15.5861ZM116.212 2.77008H115.962V17.2061H116.212H116.462V2.77008H116.212ZM116.212 17.2061H115.962V20.9861H116.212H116.462V17.2061H116.212ZM116.212 20.9861L116.333 20.7672L111.833 18.2832L111.712 18.5021L111.591 18.721L116.091 21.205L116.212 20.9861ZM111.712 18.5021H111.962V8.60208H111.712H111.462V18.5021H111.712ZM111.712 8.60208L111.71 8.3521L108.47 8.3881L108.472 8.63808L108.475 8.88807L111.715 8.85207L111.712 8.60208ZM108.472 8.63808H108.722V7.05408H108.472H108.222V8.63808H108.472ZM108.472 7.05408L108.593 7.27281L116.333 2.98881L116.212 2.77008L116.091 2.55135L108.351 6.83535L108.472 7.05408ZM143.247 5.14608V4.89608H142.997V5.14608H143.247ZM143.247 20.9501H142.997V21.2001H143.247V20.9501ZM147.747 20.9501V21.2001H147.997V20.9501H147.747ZM147.747 8.53008V8.28008H147.497V8.53008H147.747ZM153.291 8.53008V8.78008H153.541V8.53008H153.291ZM153.291 5.14608H153.541V4.81672L153.224 4.90529L153.291 5.14608ZM147.747 6.69408H147.497V7.02345L147.815 6.93487L147.747 6.69408ZM147.747 5.14608H147.997V4.89608H147.747V5.14608ZM165.603 5.14608L165.733 4.93221L165.673 4.89608H165.603V5.14608ZM169.707 7.63008H169.957V7.48917L169.837 7.41621L169.707 7.63008ZM169.707 20.9501V21.2001H169.957V20.9501H169.707ZM165.207 20.9501H164.957V21.2001H165.207V20.9501ZM165.207 8.53008H165.457V8.28008H165.207V8.53008ZM159.447 8.53008V8.28008H159.197V8.53008H159.447ZM159.447 20.9501V21.2001H159.697V20.9501H159.447ZM154.731 20.9501H154.481V21.2001H154.731V20.9501ZM154.731 5.14608L154.828 4.91557L154.481 4.76998V5.14608H154.731ZM159.447 7.12608L159.351 7.35659L159.449 7.3977L159.546 7.35578L159.447 7.12608ZM164.055 5.14608V4.89608H164.004L163.957 4.91639L164.055 5.14608ZM143.247 5.14608H142.997V20.9501H143.247H143.497V5.14608H143.247ZM143.247 20.9501V21.2001H147.747V20.9501V20.7001H143.247V20.9501ZM147.747 20.9501H147.997V8.53008H147.747H147.497V20.9501H147.747ZM147.747 8.53008V8.78008H153.291V8.53008V8.28008H147.747V8.53008ZM153.291 8.53008H153.541V5.14608H153.291H153.041V8.53008H153.291ZM153.291 5.14608L153.224 4.90529L147.68 6.45329L147.747 6.69408L147.815 6.93487L153.359 5.38687L153.291 5.14608ZM147.747 6.69408H147.997V5.14608H147.747H147.497V6.69408H147.747ZM147.747 5.14608V4.89608H143.247V5.14608V5.39608H147.747V5.14608ZM165.603 5.14608L165.474 5.35996L169.578 7.84396L169.707 7.63008L169.837 7.41621L165.733 4.93221L165.603 5.14608ZM169.707 7.63008H169.457V20.9501H169.707H169.957V7.63008H169.707ZM169.707 20.9501V20.7001H165.207V20.9501V21.2001H169.707V20.9501ZM165.207 20.9501H165.457V8.53008H165.207H164.957V20.9501H165.207ZM165.207 8.53008V8.28008H159.447V8.53008V8.78008H165.207V8.53008ZM159.447 8.53008H159.197V20.9501H159.447H159.697V8.53008H159.447ZM159.447 20.9501V20.7001H154.731V20.9501V21.2001H159.447V20.9501ZM154.731 20.9501H154.981V8.53008H154.731H154.481V20.9501H154.731ZM154.731 8.53008H154.981V5.14608H154.731H154.481V8.53008H154.731ZM154.731 5.14608L154.635 5.37659L159.351 7.35659L159.447 7.12608L159.544 6.89558L154.828 4.91557L154.731 5.14608ZM159.447 7.12608L159.546 7.35578L164.154 5.37578L164.055 5.14608L163.957 4.91639L159.349 6.89639L159.447 7.12608ZM164.055 5.14608V5.39608H165.603V5.14608V4.89608H164.055V5.14608ZM197.564 11.7341L197.691 11.9499L197.814 11.8775V11.7341H197.564ZM197.564 7.63008H197.814V7.48771L197.692 7.41507L197.564 7.63008ZM193.316 5.11008L193.444 4.89507L193.385 4.86008H193.316V5.11008ZM187.556 5.11008V4.86008H187.306V5.11008H187.556ZM187.556 8.49408H187.306V8.74408H187.556V8.49408ZM192.992 8.49408H193.242V8.24408H192.992V8.49408ZM192.992 11.4461V11.6961H193.242V11.4461H192.992ZM187.556 11.4461V11.1961H187.306V11.4461H187.556ZM187.556 14.2181H187.306V14.4681H187.556V14.2181ZM193.316 14.2181V14.4681H193.384L193.443 14.4339L193.316 14.2181ZM197.564 15.9821H197.814V15.7321H197.564V15.9821ZM192.848 15.9821V15.7321H192.598V15.9821H192.848ZM192.848 17.1701V17.4201H193.098V17.1701H192.848ZM187.556 17.1701V16.9201H187.306V17.1701H187.556ZM187.556 20.9861H187.306V21.2361H187.556V20.9861ZM193.316 20.9861V21.2361H193.384L193.443 21.2019L193.316 20.9861ZM197.564 18.5021L197.691 18.7179L197.814 18.6455V18.5021H197.564ZM175.82 18.5021H175.57V18.6455L175.694 18.7179L175.82 18.5021ZM175.82 7.63008L175.693 7.41507L175.57 7.48771V7.63008H175.82ZM180.068 5.11008V4.86008H180L179.941 4.89507L180.068 5.11008ZM185.792 5.11008H186.042V4.86008H185.792V5.11008ZM185.792 8.49408V8.74408H186.042V8.49408H185.792ZM180.356 8.49408V8.24408H180.106V8.49408H180.356ZM180.356 11.4461H180.106V11.6961H180.356V11.4461ZM185.792 11.4461H186.042V11.1961H185.792V11.4461ZM185.792 14.2181V14.4681H186.042V14.2181H185.792ZM180.356 14.2181V13.9681H180.106V14.2181H180.356ZM180.356 17.1701H180.106V17.4201H180.356V17.1701ZM185.792 17.1701H186.042V16.9201H185.792V17.1701ZM185.792 20.9861V21.2361H186.042V20.9861H185.792ZM180.068 20.9861L179.942 21.2019L180.001 21.2361H180.068V20.9861ZM197.564 11.7341H197.814V7.63008H197.564H197.314V11.7341H197.564ZM197.564 7.63008L197.692 7.41507L193.444 4.89507L193.316 5.11008L193.189 5.3251L197.437 7.8451L197.564 7.63008ZM193.316 5.11008V4.86008H187.556V5.11008V5.36008H193.316V5.11008ZM187.556 5.11008H187.306V8.49408H187.556H187.806V5.11008H187.556ZM187.556 8.49408V8.74408H192.992V8.49408V8.24408H187.556V8.49408ZM192.992 8.49408H192.742V11.4461H192.992H193.242V8.49408H192.992ZM192.992 11.4461V11.1961H187.556V11.4461V11.6961H192.992V11.4461ZM187.556 11.4461H187.306V14.2181H187.556H187.806V11.4461H187.556ZM187.556 14.2181V14.4681H193.316V14.2181V13.9681H187.556V14.2181ZM193.316 14.2181L193.443 14.4339L197.691 11.9499L197.564 11.7341L197.438 11.5183L193.19 14.0023L193.316 14.2181ZM197.564 15.9821V15.7321H192.848V15.9821V16.2321H197.564V15.9821ZM192.848 15.9821H192.598V17.1701H192.848H193.098V15.9821H192.848ZM192.848 17.1701V16.9201H187.556V17.1701V17.4201H192.848V17.1701ZM187.556 17.1701H187.306V20.9861H187.556H187.806V17.1701H187.556ZM187.556 20.9861V21.2361H193.316V20.9861V20.7361H187.556V20.9861ZM193.316 20.9861L193.443 21.2019L197.691 18.7179L197.564 18.5021L197.438 18.2863L193.19 20.7703L193.316 20.9861ZM197.564 18.5021H197.814V15.9821H197.564H197.314V18.5021H197.564ZM175.82 18.5021H176.07V7.63008H175.82H175.57V18.5021H175.82ZM175.82 7.63008L175.948 7.8451L180.196 5.3251L180.068 5.11008L179.941 4.89507L175.693 7.41507L175.82 7.63008ZM180.068 5.11008V5.36008H185.792V5.11008V4.86008H180.068V5.11008ZM185.792 5.11008H185.542V8.49408H185.792H186.042V5.11008H185.792ZM185.792 8.49408V8.24408H180.356V8.49408V8.74408H185.792V8.49408ZM180.356 8.49408H180.106V11.4461H180.356H180.606V8.49408H180.356ZM180.356 11.4461V11.6961H185.792V11.4461V11.1961H180.356V11.4461ZM185.792 11.4461H185.542V14.2181H185.792H186.042V11.4461H185.792ZM185.792 14.2181V13.9681H180.356V14.2181V14.4681H185.792V14.2181ZM180.356 14.2181H180.106V17.1701H180.356H180.606V14.2181H180.356ZM180.356 17.1701V17.4201H185.792V17.1701V16.9201H180.356V17.1701ZM185.792 17.1701H185.542V20.9861H185.792H186.042V17.1701H185.792ZM185.792 20.9861V20.7361H180.068V20.9861V21.2361H185.792V20.9861ZM180.068 20.9861L180.195 20.7703L175.947 18.2863L175.82 18.5021L175.694 18.7179L179.942 21.2019L180.068 20.9861Z" fill="white" mask="url(#path-1-outside-1_251_9)"/>
</svg>
