<svg width="896" height="113" viewBox="0 0 896 113" fill="none" xmlns="http://www.w3.org/2000/svg">
<g clip-path="url(#clip0_250_114)">
<path d="M2 2.5H17.96L46.8 29.66V50.8L19.64 25.18V83H2V2.5ZM98.46 2.5H82.64L53.66 29.66V50.8L80.82 25.18V83H98.46V2.5ZM209.994 65.08L194.314 74.6H172.194V63.4H192.494V34.56H171.354V21.4H194.314L209.994 31.06V65.08ZM126.414 21.4H165.194V34.56H144.194V63.4H164.494V74.6H144.194V110.02H126.414V21.4ZM232.442 12.16V83H250.082V50.8H277.242V34.84H250.082V18.32H277.242V2.5H248.402L232.442 12.16ZM328.902 12.16V83H311.262V50.8H283.542V34.84H311.262V18.32H283.542V2.5H312.382L328.902 12.16ZM426.078 73.34L410.118 83H387.578V68.3H409.138V56.96H387.998V46.04H410.118L426.078 55.84V73.34ZM342.638 31.48L358.598 21.82H381.278V34.84H360.278V46.04H381.278V56.96H358.598L342.638 47.3V31.48ZM360.278 63.54V68.3H381.278V83H358.598L342.638 73.34V63.54H360.278ZM408.577 40.86V34.84H387.578V21.82H410.118L426.078 31.48V40.86H408.577ZM447.058 12.16V41.7L463.018 51.22H491.858V34.84H464.138V19.02H491.858V2.5H463.018L447.058 12.16ZM543.518 44.5V73.48L526.998 83H498.718V67.18H525.878V51.22H498.158V34.84H526.998L543.518 44.5ZM464.698 57.52H447.058V73.48L463.438 83H491.858V67.18H464.698V57.52ZM543.518 28.54H525.878V19.02H498.158V2.5H526.998L543.518 12.16V28.54ZM564.532 89.3H582.592V95.6H603.032V110.3H580.912L564.532 100.64V89.3ZM564.532 31.06V65.36L580.912 75.16H603.032V63.82H582.312V34.84H603.032V21.4H580.912L564.532 31.06ZM648.672 21.4V100.64L632.292 110.3H610.032V95.6H630.892V75.16H610.032V63.82H630.892V34.84H610.032V21.4H648.672ZM675.34 2.5H692.98V34.84H720.14V50.8H692.98V83H675.34V2.5ZM771.8 2.5H754.16V34.84H727V50.8H754.16V83H771.8V2.5ZM796.954 12.16V83H814.594V50.8H841.754V34.84H814.594V18.32H841.754V2.5H812.914L796.954 12.16ZM893.41 12.16V83H875.774V50.8H848.054V34.84H875.774V18.32H848.054V2.5H876.894L893.41 12.16Z" fill="#00A8EB"/>
<mask id="mask0_250_114" style="mask-type:luminance" maskUnits="userSpaceOnUse" x="0" y="0" width="896" height="113">
<path d="M896 0H0V113H896V0Z" fill="white"/>
<path d="M2 2.5H17.96L46.8 29.66V50.8L19.64 25.18V83H2V2.5ZM98.46 2.5H82.64L53.66 29.66V50.8L80.82 25.18V83H98.46V2.5ZM209.994 65.08L194.314 74.6H172.194V63.4H192.494V34.56H171.354V21.4H194.314L209.994 31.06V65.08ZM126.414 21.4H165.194V34.56H144.194V63.4H164.494V74.6H144.194V110.02H126.414V21.4ZM232.442 12.16V83H250.082V50.8H277.242V34.84H250.082V18.32H277.242V2.5H248.402L232.442 12.16ZM328.902 12.16V83H311.262V50.8H283.542V34.84H311.262V18.32H283.542V2.5H312.382L328.902 12.16ZM426.078 73.34L410.118 83H387.578V68.3H409.138V56.96H387.998V46.04H410.118L426.078 55.84V73.34ZM342.638 31.48L358.598 21.82H381.278V34.84H360.278V46.04H381.278V56.96H358.598L342.638 47.3V31.48ZM360.278 63.54V68.3H381.278V83H358.598L342.638 73.34V63.54H360.278ZM408.577 40.86V34.84H387.578V21.82H410.118L426.078 31.48V40.86H408.577ZM447.058 12.16V41.7L463.018 51.22H491.858V34.84H464.138V19.02H491.858V2.5H463.018L447.058 12.16ZM543.518 44.5V73.48L526.998 83H498.718V67.18H525.878V51.22H498.158V34.84H526.998L543.518 44.5ZM464.698 57.52H447.058V73.48L463.438 83H491.858V67.18H464.698V57.52ZM543.518 28.54H525.878V19.02H498.158V2.5H526.998L543.518 12.16V28.54ZM564.532 89.3H582.592V95.6H603.032V110.3H580.912L564.532 100.64V89.3ZM564.532 31.06V65.36L580.912 75.16H603.032V63.82H582.312V34.84H603.032V21.4H580.912L564.532 31.06ZM648.672 21.4V100.64L632.292 110.3H610.032V95.6H630.892V75.16H610.032V63.82H630.892V34.84H610.032V21.4H648.672ZM675.34 2.5H692.98V34.84H720.14V50.8H692.98V83H675.34V2.5ZM771.8 2.5H754.16V34.84H727V50.8H754.16V83H771.8V2.5ZM796.954 12.16V83H814.594V50.8H841.754V34.84H814.594V18.32H841.754V2.5H812.914L796.954 12.16ZM893.41 12.16V83H875.774V50.8H848.054V34.84H875.774V18.32H848.054V2.5H876.894L893.41 12.16Z" fill="black"/>
</mask>
<g mask="url(#mask0_250_114)">
<path d="M2 2.5V0.5H0V2.5H2ZM17.96 2.5L19.331 1.044L18.754 0.5H17.96V2.5ZM46.8 29.66H48.8V28.7962L48.171 28.204L46.8 29.66ZM46.8 50.8L45.428 52.2549L48.8 55.436V50.8H46.8ZM19.64 25.18L21.012 23.7251L17.64 20.544V25.18H19.64ZM19.64 83V85H21.64V83H19.64ZM2 83H0V85H2V83ZM98.46 2.5H100.46V0.5H98.46V2.5ZM82.64 2.5V0.5H81.849L81.272 1.0407L82.64 2.5ZM53.66 29.66L52.292 28.2007L51.66 28.7933V29.66H53.66ZM53.66 50.8H51.66V55.436L55.032 52.2549L53.66 50.8ZM80.82 25.18H82.82V20.544L79.448 23.7251L80.82 25.18ZM80.82 83H78.82V85H80.82V83ZM98.46 83V85H100.46V83H98.46ZM2 2.5V4.5H17.96V2.5V0.5H2V2.5ZM17.96 2.5L16.589 3.956L45.429 31.116L46.8 29.66L48.171 28.204L19.331 1.044L17.96 2.5ZM46.8 29.66H44.8V50.8H46.8H48.8V29.66H46.8ZM46.8 50.8L48.172 49.3451L21.012 23.7251L19.64 25.18L18.268 26.6349L45.428 52.2549L46.8 50.8ZM19.64 25.18H17.64V83H19.64H21.64V25.18H19.64ZM19.64 83V81H2V83V85H19.64V83ZM2 83H4V2.5H2H0V83H2ZM98.46 2.5V0.5H82.64V2.5V4.5H98.46V2.5ZM82.64 2.5L81.272 1.0407L52.292 28.2007L53.66 29.66L55.028 31.1193L84.008 3.9593L82.64 2.5ZM53.66 29.66H51.66V50.8H53.66H55.66V29.66H53.66ZM53.66 50.8L55.032 52.2549L82.192 26.6349L80.82 25.18L79.448 23.7251L52.288 49.3451L53.66 50.8ZM80.82 25.18H78.82V83H80.82H82.82V25.18H80.82ZM80.82 83V85H98.46V83V81H80.82V83ZM98.46 83H100.46V2.5H98.46H96.46V83H98.46ZM209.994 65.08L211.032 66.7896L211.994 66.2055V65.08H209.994ZM194.314 74.6V76.6H194.874L195.352 76.31L194.314 74.6ZM172.194 74.6H170.194V76.6H172.194V74.6ZM172.194 63.4V61.4H170.194V63.4H172.194ZM192.494 63.4V65.4H194.494V63.4H192.494ZM192.494 34.56H194.494V32.56H192.494V34.56ZM171.354 34.56H169.354V36.56H171.354V34.56ZM171.354 21.4V19.4H169.354V21.4H171.354ZM194.314 21.4L195.363 19.6972L194.881 19.4H194.314V21.4ZM209.994 31.06H211.994V29.9431L211.043 29.3572L209.994 31.06ZM126.414 21.4V19.4H124.414V21.4H126.414ZM165.194 21.4H167.194V19.4H165.194V21.4ZM165.194 34.56V36.56H167.194V34.56H165.194ZM144.194 34.56V32.56H142.194V34.56H144.194ZM144.194 63.4H142.194V65.4H144.194V63.4ZM164.494 63.4H166.494V61.4H164.494V63.4ZM164.494 74.6V76.6H166.494V74.6H164.494ZM144.194 74.6V72.6H142.194V74.6H144.194ZM144.194 110.02V112.02H146.194V110.02H144.194ZM126.414 110.02H124.414V112.02H126.414V110.02ZM209.994 65.08L208.956 63.3704L193.276 72.89L194.314 74.6L195.352 76.31L211.032 66.7896L209.994 65.08ZM194.314 74.6V72.6H172.194V74.6V76.6H194.314V74.6ZM172.194 74.6H174.194V63.4H172.194H170.194V74.6H172.194ZM172.194 63.4V65.4H192.494V63.4V61.4H172.194V63.4ZM192.494 63.4H194.494V34.56H192.494H190.494V63.4H192.494ZM192.494 34.56V32.56H171.354V34.56V36.56H192.494V34.56ZM171.354 34.56H173.354V21.4H171.354H169.354V34.56H171.354ZM171.354 21.4V23.4H194.314V21.4V19.4H171.354V21.4ZM194.314 21.4L193.265 23.1028L208.945 32.7628L209.994 31.06L211.043 29.3572L195.363 19.6972L194.314 21.4ZM209.994 31.06H207.994V65.08H209.994H211.994V31.06H209.994ZM126.414 21.4V23.4H165.194V21.4V19.4H126.414V21.4ZM165.194 21.4H163.194V34.56H165.194H167.194V21.4H165.194ZM165.194 34.56V32.56H144.194V34.56V36.56H165.194V34.56ZM144.194 34.56H142.194V63.4H144.194H146.194V34.56H144.194ZM144.194 63.4V65.4H164.494V63.4V61.4H144.194V63.4ZM164.494 63.4H162.494V74.6H164.494H166.494V63.4H164.494ZM164.494 74.6V72.6H144.194V74.6V76.6H164.494V74.6ZM144.194 74.6H142.194V110.02H144.194H146.194V74.6H144.194ZM144.194 110.02V108.02H126.414V110.02V112.02H144.194V110.02ZM126.414 110.02H128.414V21.4H126.414H124.414V110.02H126.414ZM232.442 12.16L231.407 10.449L230.442 11.0327V12.16H232.442ZM232.442 83H230.442V85H232.442V83ZM250.082 83V85H252.082V83H250.082ZM250.082 50.8V48.8H248.082V50.8H250.082ZM277.242 50.8V52.8H279.242V50.8H277.242ZM277.242 34.84H279.242V32.84H277.242V34.84ZM250.082 34.84H248.082V36.84H250.082V34.84ZM250.082 18.32V16.32H248.082V18.32H250.082ZM277.242 18.32V20.32H279.242V18.32H277.242ZM277.242 2.5H279.242V0.5H277.242V2.5ZM248.402 2.5V0.5H247.844L247.367 0.789L248.402 2.5ZM328.902 12.16H330.902V11.0127L329.912 10.4335L328.902 12.16ZM328.902 83V85H330.902V83H328.902ZM311.262 83H309.262V85H311.262V83ZM311.262 50.8H313.262V48.8H311.262V50.8ZM283.542 50.8H281.542V52.8H283.542V50.8ZM283.542 34.84V32.84H281.542V34.84H283.542ZM311.262 34.84V36.84H313.262V34.84H311.262ZM311.262 18.32H313.262V16.32H311.262V18.32ZM283.542 18.32H281.542V20.32H283.542V18.32ZM283.542 2.5V0.5H281.542V2.5H283.542ZM312.382 2.5L313.392 0.7735L312.924 0.5H312.382V2.5ZM232.442 12.16H230.442V83H232.442H234.442V12.16H232.442ZM232.442 83V85H250.082V83V81H232.442V83ZM250.082 83H252.082V50.8H250.082H248.082V83H250.082ZM250.082 50.8V52.8H277.242V50.8V48.8H250.082V50.8ZM277.242 50.8H279.242V34.84H277.242H275.242V50.8H277.242ZM277.242 34.84V32.84H250.082V34.84V36.84H277.242V34.84ZM250.082 34.84H252.082V18.32H250.082H248.082V34.84H250.082ZM250.082 18.32V20.32H277.242V18.32V16.32H250.082V18.32ZM277.242 18.32H279.242V2.5H277.242H275.242V18.32H277.242ZM277.242 2.5V0.5H248.402V2.5V4.5H277.242V2.5ZM248.402 2.5L247.367 0.789L231.407 10.449L232.442 12.16L233.478 13.871L249.438 4.211L248.402 2.5ZM328.902 12.16H326.902V83H328.902H330.902V12.16H328.902ZM328.902 83V81H311.262V83V85H328.902V83ZM311.262 83H313.262V50.8H311.262H309.262V83H311.262ZM311.262 50.8V48.8H283.542V50.8V52.8H311.262V50.8ZM283.542 50.8H285.542V34.84H283.542H281.542V50.8H283.542ZM283.542 34.84V36.84H311.262V34.84V32.84H283.542V34.84ZM311.262 34.84H313.262V18.32H311.262H309.262V34.84H311.262ZM311.262 18.32V16.32H283.542V18.32V20.32H311.262V18.32ZM283.542 18.32H285.542V2.5H283.542H281.542V18.32H283.542ZM283.542 2.5V4.5H312.382V2.5V0.5H283.542V2.5ZM312.382 2.5L311.373 4.2265L327.893 13.8865L328.902 12.16L329.912 10.4335L313.392 0.7735L312.382 2.5ZM426.078 73.34L427.113 75.051L428.078 74.467V73.34H426.078ZM410.118 83V85H410.676L411.153 84.711L410.118 83ZM387.578 83H385.578V85H387.578V83ZM387.578 68.3V66.3H385.578V68.3H387.578ZM409.138 68.3V70.3H411.138V68.3H409.138ZM409.138 56.96H411.138V54.96H409.138V56.96ZM387.998 56.96H385.998V58.96H387.998V56.96ZM387.998 46.04V44.04H385.998V46.04H387.998ZM410.118 46.04L411.164 44.3357L410.683 44.04H410.118V46.04ZM426.078 55.84H428.078V54.7211L427.124 54.1357L426.078 55.84ZM342.638 31.48L341.602 29.769L340.638 30.3527V31.48H342.638ZM358.598 21.82V19.82H358.039L357.562 20.109L358.598 21.82ZM381.278 21.82H383.278V19.82H381.278V21.82ZM381.278 34.84V36.84H383.278V34.84H381.278ZM360.278 34.84V32.84H358.278V34.84H360.278ZM360.278 46.04H358.278V48.04H360.278V46.04ZM381.278 46.04H383.278V44.04H381.278V46.04ZM381.278 56.96V58.96H383.278V56.96H381.278ZM358.598 56.96L357.562 58.671L358.039 58.96H358.598V56.96ZM342.638 47.3H340.638V48.4273L341.602 49.011L342.638 47.3ZM360.278 63.54H362.278V61.54H360.278V63.54ZM360.278 68.3H358.278V70.3H360.278V68.3ZM381.278 68.3H383.278V66.3H381.278V68.3ZM381.278 83V85H383.278V83H381.278ZM358.598 83L357.562 84.711L358.039 85H358.598V83ZM342.638 73.34H340.638V74.467L341.602 75.051L342.638 73.34ZM342.638 63.54V61.54H340.638V63.54H342.638ZM408.577 40.86H406.577V42.86H408.577V40.86ZM408.577 34.84H410.577V32.84H408.577V34.84ZM387.578 34.84H385.578V36.84H387.578V34.84ZM387.578 21.82V19.82H385.578V21.82H387.578ZM410.118 21.82L411.153 20.109L410.676 19.82H410.118V21.82ZM426.078 31.48H428.078V30.3527L427.113 29.769L426.078 31.48ZM426.078 40.86V42.86H428.078V40.86H426.078ZM426.078 73.34L425.042 71.629L409.082 81.289L410.118 83L411.153 84.711L427.113 75.051L426.078 73.34ZM410.118 83V81H387.578V83V85H410.118V83ZM387.578 83H389.578V68.3H387.578H385.578V83H387.578ZM387.578 68.3V70.3H409.138V68.3V66.3H387.578V68.3ZM409.138 68.3H411.138V56.96H409.138H407.138V68.3H409.138ZM409.138 56.96V54.96H387.998V56.96V58.96H409.138V56.96ZM387.998 56.96H389.998V46.04H387.998H385.998V56.96H387.998ZM387.998 46.04V48.04H410.118V46.04V44.04H387.998V46.04ZM410.118 46.04L409.071 47.7443L425.031 57.5443L426.078 55.84L427.124 54.1357L411.164 44.3357L410.118 46.04ZM426.078 55.84H424.078V73.34H426.078H428.078V55.84H426.078ZM342.638 31.48L343.673 33.191L359.633 23.531L358.598 21.82L357.562 20.109L341.602 29.769L342.638 31.48ZM358.598 21.82V23.82H381.278V21.82V19.82H358.598V21.82ZM381.278 21.82H379.278V34.84H381.278H383.278V21.82H381.278ZM381.278 34.84V32.84H360.278V34.84V36.84H381.278V34.84ZM360.278 34.84H358.278V46.04H360.278H362.278V34.84H360.278ZM360.278 46.04V48.04H381.278V46.04V44.04H360.278V46.04ZM381.278 46.04H379.278V56.96H381.278H383.278V46.04H381.278ZM381.278 56.96V54.96H358.598V56.96V58.96H381.278V56.96ZM358.598 56.96L359.633 55.249L343.673 45.589L342.638 47.3L341.602 49.011L357.562 58.671L358.598 56.96ZM342.638 47.3H344.638V31.48H342.638H340.638V47.3H342.638ZM360.278 63.54H358.278V68.3H360.278H362.278V63.54H360.278ZM360.278 68.3V70.3H381.278V68.3V66.3H360.278V68.3ZM381.278 68.3H379.278V83H381.278H383.278V68.3H381.278ZM381.278 83V81H358.598V83V85H381.278V83ZM358.598 83L359.633 81.289L343.673 71.629L342.638 73.34L341.602 75.051L357.562 84.711L358.598 83ZM342.638 73.34H344.638V63.54H342.638H340.638V73.34H342.638ZM342.638 63.54V65.54H360.278V63.54V61.54H342.638V63.54ZM408.577 40.86H410.577V34.84H408.577H406.577V40.86H408.577ZM408.577 34.84V32.84H387.578V34.84V36.84H408.577V34.84ZM387.578 34.84H389.578V21.82H387.578H385.578V34.84H387.578ZM387.578 21.82V23.82H410.118V21.82V19.82H387.578V21.82ZM410.118 21.82L409.082 23.531L425.042 33.191L426.078 31.48L427.113 29.769L411.153 20.109L410.118 21.82ZM426.078 31.48H424.078V40.86H426.078H428.078V31.48H426.078ZM426.078 40.86V38.86H408.577V40.86V42.86H426.078V40.86ZM447.058 12.16L446.022 10.449L445.058 11.0327V12.16H447.058ZM447.058 41.7H445.058V42.8358L446.033 43.4176L447.058 41.7ZM463.018 51.22L461.993 52.9376L462.467 53.22H463.018V51.22ZM491.858 51.22V53.22H493.858V51.22H491.858ZM491.858 34.84H493.858V32.84H491.858V34.84ZM464.138 34.84H462.138V36.84H464.138V34.84ZM464.138 19.02V17.02H462.138V19.02H464.138ZM491.858 19.02V21.02H493.858V19.02H491.858ZM491.858 2.5H493.858V0.5H491.858V2.5ZM463.018 2.5V0.5H462.46L461.982 0.789L463.018 2.5ZM543.518 44.5H545.518V43.3527L544.527 42.7735L543.518 44.5ZM543.518 73.48L544.516 75.213L545.518 74.636V73.48H543.518ZM526.998 83V85H527.533L527.996 84.733L526.998 83ZM498.718 83H496.718V85H498.718V83ZM498.718 67.18V65.18H496.718V67.18H498.718ZM525.878 67.18V69.18H527.878V67.18H525.878ZM525.878 51.22H527.878V49.22H525.878V51.22ZM498.158 51.22H496.158V53.22H498.158V51.22ZM498.158 34.84V32.84H496.158V34.84H498.158ZM526.998 34.84L528.007 33.1135L527.54 32.84H526.998V34.84ZM464.698 57.52H466.698V55.52H464.698V57.52ZM447.058 57.52V55.52H445.058V57.52H447.058ZM447.058 73.48H445.058V74.631L446.053 75.209L447.058 73.48ZM463.438 83L462.433 84.729L462.899 85H463.438V83ZM491.858 83V85H493.858V83H491.858ZM491.858 67.18H493.858V65.18H491.858V67.18ZM464.698 67.18H462.698V69.18H464.698V67.18ZM543.518 28.54V30.54H545.518V28.54H543.518ZM525.878 28.54H523.878V30.54H525.878V28.54ZM525.878 19.02H527.878V17.02H525.878V19.02ZM498.158 19.02H496.158V21.02H498.158V19.02ZM498.158 2.5V0.5H496.158V2.5H498.158ZM526.998 2.5L528.007 0.7735L527.54 0.5H526.998V2.5ZM543.518 12.16H545.518V11.0127L544.527 10.4335L543.518 12.16ZM447.058 12.16H445.058V41.7H447.058H449.058V12.16H447.058ZM447.058 41.7L446.033 43.4176L461.993 52.9376L463.018 51.22L464.042 49.5024L448.082 39.9824L447.058 41.7ZM463.018 51.22V53.22H491.858V51.22V49.22H463.018V51.22ZM491.858 51.22H493.858V34.84H491.858H489.858V51.22H491.858ZM491.858 34.84V32.84H464.138V34.84V36.84H491.858V34.84ZM464.138 34.84H466.138V19.02H464.138H462.138V34.84H464.138ZM464.138 19.02V21.02H491.858V19.02V17.02H464.138V19.02ZM491.858 19.02H493.858V2.5H491.858H489.858V19.02H491.858ZM491.858 2.5V0.5H463.018V2.5V4.5H491.858V2.5ZM463.018 2.5L461.982 0.789L446.022 10.449L447.058 12.16L448.093 13.871L464.053 4.211L463.018 2.5ZM543.518 44.5H541.518V73.48H543.518H545.518V44.5H543.518ZM543.518 73.48L542.519 71.747L525.999 81.267L526.998 83L527.996 84.733L544.516 75.213L543.518 73.48ZM526.998 83V81H498.718V83V85H526.998V83ZM498.718 83H500.718V67.18H498.718H496.718V83H498.718ZM498.718 67.18V69.18H525.878V67.18V65.18H498.718V67.18ZM525.878 67.18H527.878V51.22H525.878H523.878V67.18H525.878ZM525.878 51.22V49.22H498.158V51.22V53.22H525.878V51.22ZM498.158 51.22H500.158V34.84H498.158H496.158V51.22H498.158ZM498.158 34.84V36.84H526.998V34.84V32.84H498.158V34.84ZM526.998 34.84L525.988 36.5665L542.508 46.2265L543.518 44.5L544.527 42.7735L528.007 33.1135L526.998 34.84ZM464.698 57.52V55.52H447.058V57.52V59.52H464.698V57.52ZM447.058 57.52H445.058V73.48H447.058H449.058V57.52H447.058ZM447.058 73.48L446.053 75.209L462.433 84.729L463.438 83L464.443 81.271L448.063 71.751L447.058 73.48ZM463.438 83V85H491.858V83V81H463.438V83ZM491.858 83H493.858V67.18H491.858H489.858V83H491.858ZM491.858 67.18V65.18H464.698V67.18V69.18H491.858V67.18ZM464.698 67.18H466.698V57.52H464.698H462.698V67.18H464.698ZM543.518 28.54V26.54H525.878V28.54V30.54H543.518V28.54ZM525.878 28.54H527.878V19.02H525.878H523.878V28.54H525.878ZM525.878 19.02V17.02H498.158V19.02V21.02H525.878V19.02ZM498.158 19.02H500.158V2.5H498.158H496.158V19.02H498.158ZM498.158 2.5V4.5H526.998V2.5V0.5H498.158V2.5ZM526.998 2.5L525.988 4.2265L542.508 13.8865L543.518 12.16L544.527 10.4335L528.007 0.7735L526.998 2.5ZM543.518 12.16H541.518V28.54H543.518H545.518V12.16H543.518ZM564.532 89.3V87.3H562.532V89.3H564.532ZM582.592 89.3H584.592V87.3H582.592V89.3ZM582.592 95.6H580.592V97.6H582.592V95.6ZM603.032 95.6H605.032V93.6H603.032V95.6ZM603.032 110.3V112.3H605.032V110.3H603.032ZM580.912 110.3L579.896 112.023L580.366 112.3H580.912V110.3ZM564.532 100.64H562.532V101.782L563.516 102.363L564.532 100.64ZM564.532 31.06L563.516 29.3373L562.532 29.9176V31.06H564.532ZM564.532 65.36H562.532V66.494L563.505 67.0763L564.532 65.36ZM580.912 75.16L579.885 76.876L580.359 77.16H580.912V75.16ZM603.032 75.16V77.16H605.032V75.16H603.032ZM603.032 63.82H605.032V61.82H603.032V63.82ZM582.312 63.82H580.312V65.82H582.312V63.82ZM582.312 34.84V32.84H580.312V34.84H582.312ZM603.032 34.84V36.84H605.032V34.84H603.032ZM603.032 21.4H605.032V19.4H603.032V21.4ZM580.912 21.4V19.4H580.366L579.896 19.6773L580.912 21.4ZM648.672 21.4H650.672V19.4H648.672V21.4ZM648.672 100.64L649.688 102.363L650.672 101.782V100.64H648.672ZM632.292 110.3V112.3H632.838L633.308 112.023L632.292 110.3ZM610.032 110.3H608.032V112.3H610.032V110.3ZM610.032 95.6V93.6H608.032V95.6H610.032ZM630.892 95.6V97.6H632.892V95.6H630.892ZM630.892 75.16H632.892V73.16H630.892V75.16ZM610.032 75.16H608.032V77.16H610.032V75.16ZM610.032 63.82V61.82H608.032V63.82H610.032ZM630.892 63.82V65.82H632.892V63.82H630.892ZM630.892 34.84H632.892V32.84H630.892V34.84ZM610.032 34.84H608.032V36.84H610.032V34.84ZM610.032 21.4V19.4H608.032V21.4H610.032ZM564.532 89.3V91.3H582.592V89.3V87.3H564.532V89.3ZM582.592 89.3H580.592V95.6H582.592H584.592V89.3H582.592ZM582.592 95.6V97.6H603.032V95.6V93.6H582.592V95.6ZM603.032 95.6H601.032V110.3H603.032H605.032V95.6H603.032ZM603.032 110.3V108.3H580.912V110.3V112.3H603.032V110.3ZM580.912 110.3L581.928 108.577L565.548 98.917L564.532 100.64L563.516 102.363L579.896 112.023L580.912 110.3ZM564.532 100.64H566.532V89.3H564.532H562.532V100.64H564.532ZM564.532 31.06H562.532V65.36H564.532H566.532V31.06H564.532ZM564.532 65.36L563.505 67.0763L579.885 76.876L580.912 75.16L581.939 73.444L565.559 63.6437L564.532 65.36ZM580.912 75.16V77.16H603.032V75.16V73.16H580.912V75.16ZM603.032 75.16H605.032V63.82H603.032H601.032V75.16H603.032ZM603.032 63.82V61.82H582.312V63.82V65.82H603.032V63.82ZM582.312 63.82H584.312V34.84H582.312H580.312V63.82H582.312ZM582.312 34.84V36.84H603.032V34.84V32.84H582.312V34.84ZM603.032 34.84H605.032V21.4H603.032H601.032V34.84H603.032ZM603.032 21.4V19.4H580.912V21.4V23.4H603.032V21.4ZM580.912 21.4L579.896 19.6773L563.516 29.3373L564.532 31.06L565.548 32.7827L581.928 23.1227L580.912 21.4ZM648.672 21.4H646.672V100.64H648.672H650.672V21.4H648.672ZM648.672 100.64L647.656 98.917L631.276 108.577L632.292 110.3L633.308 112.023L649.688 102.363L648.672 100.64ZM632.292 110.3V108.3H610.032V110.3V112.3H632.292V110.3ZM610.032 110.3H612.032V95.6H610.032H608.032V110.3H610.032ZM610.032 95.6V97.6H630.892V95.6V93.6H610.032V95.6ZM630.892 95.6H632.892V75.16H630.892H628.892V95.6H630.892ZM630.892 75.16V73.16H610.032V75.16V77.16H630.892V75.16ZM610.032 75.16H612.032V63.82H610.032H608.032V75.16H610.032ZM610.032 63.82V65.82H630.892V63.82V61.82H610.032V63.82ZM630.892 63.82H632.892V34.84H630.892H628.892V63.82H630.892ZM630.892 34.84V32.84H610.032V34.84V36.84H630.892V34.84ZM610.032 34.84H612.032V21.4H610.032H608.032V34.84H610.032ZM610.032 21.4V23.4H648.672V21.4V19.4H610.032V21.4ZM675.34 2.5V0.5H673.34V2.5H675.34ZM692.98 2.5H694.98V0.5H692.98V2.5ZM692.98 34.84H690.98V36.84H692.98V34.84ZM720.14 34.84H722.14V32.84H720.14V34.84ZM720.14 50.8V52.8H722.14V50.8H720.14ZM692.98 50.8V48.8H690.98V50.8H692.98ZM692.98 83V85H694.98V83H692.98ZM675.34 83H673.34V85H675.34V83ZM771.8 2.5H773.8V0.5H771.8V2.5ZM754.16 2.5V0.5H752.16V2.5H754.16ZM754.16 34.84V36.84H756.16V34.84H754.16ZM727 34.84V32.84H725V34.84H727ZM727 50.8H725V52.8H727V50.8ZM754.16 50.8H756.16V48.8H754.16V50.8ZM754.16 83H752.16V85H754.16V83ZM771.8 83V85H773.8V83H771.8ZM675.34 2.5V4.5H692.98V2.5V0.5H675.34V2.5ZM692.98 2.5H690.98V34.84H692.98H694.98V2.5H692.98ZM692.98 34.84V36.84H720.14V34.84V32.84H692.98V34.84ZM720.14 34.84H718.14V50.8H720.14H722.14V34.84H720.14ZM720.14 50.8V48.8H692.98V50.8V52.8H720.14V50.8ZM692.98 50.8H690.98V83H692.98H694.98V50.8H692.98ZM692.98 83V81H675.34V83V85H692.98V83ZM675.34 83H677.34V2.5H675.34H673.34V83H675.34ZM771.8 2.5V0.5H754.16V2.5V4.5H771.8V2.5ZM754.16 2.5H752.16V34.84H754.16H756.16V2.5H754.16ZM754.16 34.84V32.84H727V34.84V36.84H754.16V34.84ZM727 34.84H725V50.8H727H729V34.84H727ZM727 50.8V52.8H754.16V50.8V48.8H727V50.8ZM754.16 50.8H752.16V83H754.16H756.16V50.8H754.16ZM754.16 83V85H771.8V83V81H754.16V83ZM771.8 83H773.8V2.5H771.8H769.8V83H771.8ZM796.954 12.16L795.918 10.449L794.954 11.0327V12.16H796.954ZM796.954 83H794.954V85H796.954V83ZM814.594 83V85H816.594V83H814.594ZM814.594 50.8V48.8H812.594V50.8H814.594ZM841.754 50.8V52.8H843.754V50.8H841.754ZM841.754 34.84H843.754V32.84H841.754V34.84ZM814.594 34.84H812.594V36.84H814.594V34.84ZM814.594 18.32V16.32H812.594V18.32H814.594ZM841.754 18.32V20.32H843.754V18.32H841.754ZM841.754 2.5H843.754V0.5H841.754V2.5ZM812.914 2.5V0.5H812.356L811.878 0.789L812.914 2.5ZM893.41 12.16H895.41V11.0127L894.42 10.4335L893.41 12.16ZM893.41 83V85H895.41V83H893.41ZM875.774 83H873.774V85H875.774V83ZM875.774 50.8H877.774V48.8H875.774V50.8ZM848.054 50.8H846.054V52.8H848.054V50.8ZM848.054 34.84V32.84H846.054V34.84H848.054ZM875.774 34.84V36.84H877.774V34.84H875.774ZM875.774 18.32H877.774V16.32H875.774V18.32ZM848.054 18.32H846.054V20.32H848.054V18.32ZM848.054 2.5V0.5H846.054V2.5H848.054ZM876.894 2.5L877.903 0.7735L877.436 0.5H876.894V2.5ZM796.954 12.16H794.954V83H796.954H798.954V12.16H796.954ZM796.954 83V85H814.594V83V81H796.954V83ZM814.594 83H816.594V50.8H814.594H812.594V83H814.594ZM814.594 50.8V52.8H841.754V50.8V48.8H814.594V50.8ZM841.754 50.8H843.754V34.84H841.754H839.754V50.8H841.754ZM841.754 34.84V32.84H814.594V34.84V36.84H841.754V34.84ZM814.594 34.84H816.594V18.32H814.594H812.594V34.84H814.594ZM814.594 18.32V20.32H841.754V18.32V16.32H814.594V18.32ZM841.754 18.32H843.754V2.5H841.754H839.754V18.32H841.754ZM841.754 2.5V0.5H812.914V2.5V4.5H841.754V2.5ZM812.914 2.5L811.878 0.789L795.918 10.449L796.954 12.16L797.99 13.871L813.95 4.211L812.914 2.5ZM893.41 12.16H891.41V83H893.41H895.41V12.16H893.41ZM893.41 83V81H875.774V83V85H893.41V83ZM875.774 83H877.774V50.8H875.774H873.774V83H875.774ZM875.774 50.8V48.8H848.054V50.8V52.8H875.774V50.8ZM848.054 50.8H850.054V34.84H848.054H846.054V50.8H848.054ZM848.054 34.84V36.84H875.774V34.84V32.84H848.054V34.84ZM875.774 34.84H877.774V18.32H875.774H873.774V34.84H875.774ZM875.774 18.32V16.32H848.054V18.32V20.32H875.774V18.32ZM848.054 18.32H850.054V2.5H848.054H846.054V18.32H848.054ZM848.054 2.5V4.5H876.894V2.5V0.5H848.054V2.5ZM876.894 2.5L875.884 4.2265L892.4 13.8865L893.41 12.16L894.42 10.4335L877.903 0.7735L876.894 2.5Z" fill="#01013B"/>
</g>
</g>
<defs>
<clipPath id="clip0_250_114">
<rect width="896" height="113" fill="white"/>
</clipPath>
</defs>
</svg>
