<svg width="185" height="29" viewBox="0 0 185 29" fill="none" xmlns="http://www.w3.org/2000/svg">
<mask id="path-1-outside-1_257_15" maskUnits="userSpaceOnUse" x="-0.350098" y="-0.0500488" width="185" height="29" fill="black">
<rect fill="white" x="-0.350098" y="-0.0500488" width="185" height="29"/>
<path d="M0.249902 0.249949H11.9139V4.31795H4.9299V8.56595H11.9139V12.778H4.9299V20.95H0.249902V0.249949ZM25.1979 10.33V2.73395L20.9859 0.249949H13.5339V4.31795H20.5179V8.56595H13.5339V12.778H20.9859L25.1979 10.33ZM28.7265 5.21795H33.2265V6.76595L38.6265 5.21795V8.56595H33.2265V20.95H28.7265V5.21795ZM44.9265 7.19795L40.2465 5.21795V10.114H44.9265V7.19795ZM48.151 7.59395V18.43L52.363 20.914H58.051V17.062H52.651V8.49395H58.051V5.10995H52.363L48.151 7.59395ZM69.283 7.59395V18.43L65.071 20.914H59.347V17.062H64.783V8.49395H59.347V5.10995H65.071L69.283 7.59395ZM64.6055 22.354H69.1415V24.19H74.5055V27.97H68.7815L64.6055 25.486V22.354ZM80.5895 5.10995V25.486L76.1615 27.97V24.19V5.10995H80.5895ZM80.6255 3.66995V0.285951H76.1615V3.63395L80.6255 3.66995ZM108.848 11.698V7.59395L104.6 5.07395H98.8401V8.45795H104.276V11.41H98.8401V14.182H104.6L108.848 11.698ZM108.848 15.946H104.132V17.134H98.8401V20.95H104.6L108.848 18.466V15.946ZM87.1041 18.466V7.59395L91.3521 5.07395H97.0761V8.45795H91.6401V11.41H97.0761V14.182H91.6401V17.134H97.0761V20.95H91.3521L87.1041 18.466ZM114.596 7.55795L118.7 5.07395H124.604V8.45795H119.168V17.134H124.46V20.95H118.7L114.596 18.466V7.55795ZM136.196 10.078V7.55795L132.092 5.07395H126.224V8.45795H131.66V10.078H136.196ZM136.196 15.946V18.466L132.092 20.95H126.224V17.134H131.66V15.946H136.196ZM148.788 5.21795H154.188V8.56595H148.788V5.21795ZM158.724 15.55V18.466L154.62 20.95H148.788V17.17H154.188V15.55H158.724ZM147.168 2.73395V17.17V20.95L142.668 18.466V8.56595L139.428 8.60195V7.01795L147.168 2.73395ZM184.146 18.466L180.042 20.95H174.246V17.17H179.79V14.254H174.354V11.446H180.042L184.146 13.966V18.466ZM162.69 7.70195L166.794 5.21795H172.626V8.56595H167.226V11.446H172.626V14.254H166.794L162.69 11.77V7.70195ZM167.226 15.946V17.17H172.626V20.95H166.794L162.69 18.466V15.946H167.226ZM179.646 10.114V8.56595H174.246V5.21795H180.042L184.146 7.70195V10.114H179.646Z"/>
</mask>
<path d="M0.249902 0.249949H11.9139V4.31795H4.9299V8.56595H11.9139V12.778H4.9299V20.95H0.249902V0.249949ZM25.1979 10.33V2.73395L20.9859 0.249949H13.5339V4.31795H20.5179V8.56595H13.5339V12.778H20.9859L25.1979 10.33ZM28.7265 5.21795H33.2265V6.76595L38.6265 5.21795V8.56595H33.2265V20.95H28.7265V5.21795ZM44.9265 7.19795L40.2465 5.21795V10.114H44.9265V7.19795ZM48.151 7.59395V18.43L52.363 20.914H58.051V17.062H52.651V8.49395H58.051V5.10995H52.363L48.151 7.59395ZM69.283 7.59395V18.43L65.071 20.914H59.347V17.062H64.783V8.49395H59.347V5.10995H65.071L69.283 7.59395ZM64.6055 22.354H69.1415V24.19H74.5055V27.97H68.7815L64.6055 25.486V22.354ZM80.5895 5.10995V25.486L76.1615 27.97V24.19V5.10995H80.5895ZM80.6255 3.66995V0.285951H76.1615V3.63395L80.6255 3.66995ZM108.848 11.698V7.59395L104.6 5.07395H98.8401V8.45795H104.276V11.41H98.8401V14.182H104.6L108.848 11.698ZM108.848 15.946H104.132V17.134H98.8401V20.95H104.6L108.848 18.466V15.946ZM87.1041 18.466V7.59395L91.3521 5.07395H97.0761V8.45795H91.6401V11.41H97.0761V14.182H91.6401V17.134H97.0761V20.95H91.3521L87.1041 18.466ZM114.596 7.55795L118.7 5.07395H124.604V8.45795H119.168V17.134H124.46V20.95H118.7L114.596 18.466V7.55795ZM136.196 10.078V7.55795L132.092 5.07395H126.224V8.45795H131.66V10.078H136.196ZM136.196 15.946V18.466L132.092 20.95H126.224V17.134H131.66V15.946H136.196ZM148.788 5.21795H154.188V8.56595H148.788V5.21795ZM158.724 15.55V18.466L154.62 20.95H148.788V17.17H154.188V15.55H158.724ZM147.168 2.73395V17.17V20.95L142.668 18.466V8.56595L139.428 8.60195V7.01795L147.168 2.73395ZM184.146 18.466L180.042 20.95H174.246V17.17H179.79V14.254H174.354V11.446H180.042L184.146 13.966V18.466ZM162.69 7.70195L166.794 5.21795H172.626V8.56595H167.226V11.446H172.626V14.254H166.794L162.69 11.77V7.70195ZM167.226 15.946V17.17H172.626V20.95H166.794L162.69 18.466V15.946H167.226ZM179.646 10.114V8.56595H174.246V5.21795H180.042L184.146 7.70195V10.114H179.646Z" fill="#DC38E8"/>
<path d="M0.249902 0.249949V-5.05447e-05H-9.76026e-05V0.249949H0.249902ZM11.9139 0.249949H12.1639V-5.05447e-05H11.9139V0.249949ZM11.9139 4.31795V4.56795H12.1639V4.31795H11.9139ZM4.9299 4.31795V4.06795H4.6799V4.31795H4.9299ZM4.9299 8.56595H4.6799V8.81595H4.9299V8.56595ZM11.9139 8.56595H12.1639V8.31595H11.9139V8.56595ZM11.9139 12.778V13.028H12.1639V12.778H11.9139ZM4.9299 12.778V12.528H4.6799V12.778H4.9299ZM4.9299 20.95V21.2H5.1799V20.95H4.9299ZM0.249902 20.95H-9.76026e-05V21.2H0.249902V20.95ZM25.1979 10.33L25.3235 10.5461L25.4479 10.4738V10.33H25.1979ZM25.1979 2.73395H25.4479V2.59115L25.3249 2.51861L25.1979 2.73395ZM20.9859 0.249949L21.1129 0.034608L21.0541 -5.05447e-05H20.9859V0.249949ZM13.5339 0.249949V-5.05447e-05H13.2839V0.249949H13.5339ZM13.5339 4.31795H13.2839V4.56795H13.5339V4.31795ZM20.5179 4.31795H20.7679V4.06795H20.5179V4.31795ZM20.5179 8.56595V8.81595H20.7679V8.56595H20.5179ZM13.5339 8.56595V8.31595H13.2839V8.56595H13.5339ZM13.5339 12.778H13.2839V13.028H13.5339V12.778ZM20.9859 12.778V13.028H21.0533L21.1115 12.9941L20.9859 12.778ZM0.249902 0.249949V0.499949H11.9139V0.249949V-5.05447e-05H0.249902V0.249949ZM11.9139 0.249949H11.6639V4.31795H11.9139H12.1639V0.249949H11.9139ZM11.9139 4.31795V4.06795H4.9299V4.31795V4.56795H11.9139V4.31795ZM4.9299 4.31795H4.6799V8.56595H4.9299H5.1799V4.31795H4.9299ZM4.9299 8.56595V8.81595H11.9139V8.56595V8.31595H4.9299V8.56595ZM11.9139 8.56595H11.6639V12.778H11.9139H12.1639V8.56595H11.9139ZM11.9139 12.778V12.528H4.9299V12.778V13.028H11.9139V12.778ZM4.9299 12.778H4.6799V20.95H4.9299H5.1799V12.778H4.9299ZM4.9299 20.95V20.7H0.249902V20.95V21.2H4.9299V20.95ZM0.249902 20.95H0.499902V0.249949H0.249902H-9.76026e-05V20.95H0.249902ZM25.1979 10.33H25.4479V2.73395H25.1979H24.9479V10.33H25.1979ZM25.1979 2.73395L25.3249 2.51861L21.1129 0.034608L20.9859 0.249949L20.8589 0.465291L25.0709 2.94929L25.1979 2.73395ZM20.9859 0.249949V-5.05447e-05H13.5339V0.249949V0.499949H20.9859V0.249949ZM13.5339 0.249949H13.2839V4.31795H13.5339H13.7839V0.249949H13.5339ZM13.5339 4.31795V4.56795H20.5179V4.31795V4.06795H13.5339V4.31795ZM20.5179 4.31795H20.2679V8.56595H20.5179H20.7679V4.31795H20.5179ZM20.5179 8.56595V8.31595H13.5339V8.56595V8.81595H20.5179V8.56595ZM13.5339 8.56595H13.2839V12.778H13.5339H13.7839V8.56595H13.5339ZM13.5339 12.778V13.028H20.9859V12.778V12.528H13.5339V12.778ZM20.9859 12.778L21.1115 12.9941L25.3235 10.5461L25.1979 10.33L25.0723 10.1138L20.8603 12.5618L20.9859 12.778ZM28.7265 5.21795V4.96795H28.4765V5.21795H28.7265ZM33.2265 5.21795H33.4765V4.96795H33.2265V5.21795ZM33.2265 6.76595H32.9765V7.09769L33.2954 7.00627L33.2265 6.76595ZM38.6265 5.21795H38.8765V4.88621L38.5576 4.97763L38.6265 5.21795ZM38.6265 8.56595V8.81595H38.8765V8.56595H38.6265ZM33.2265 8.56595V8.31595H32.9765V8.56595H33.2265ZM33.2265 20.95V21.2H33.4765V20.95H33.2265ZM28.7265 20.95H28.4765V21.2H28.7265V20.95ZM44.9265 7.19795H45.1765V7.03227L45.0239 6.96771L44.9265 7.19795ZM40.2465 5.21795L40.3439 4.98771L39.9965 4.84073V5.21795H40.2465ZM40.2465 10.114H39.9965V10.364H40.2465V10.114ZM44.9265 10.114V10.364H45.1765V10.114H44.9265ZM28.7265 5.21795V5.46795H33.2265V5.21795V4.96795H28.7265V5.21795ZM33.2265 5.21795H32.9765V6.76595H33.2265H33.4765V5.21795H33.2265ZM33.2265 6.76595L33.2954 7.00627L38.6954 5.45827L38.6265 5.21795L38.5576 4.97763L33.1576 6.52563L33.2265 6.76595ZM38.6265 5.21795H38.3765V8.56595H38.6265H38.8765V5.21795H38.6265ZM38.6265 8.56595V8.31595H33.2265V8.56595V8.81595H38.6265V8.56595ZM33.2265 8.56595H32.9765V20.95H33.2265H33.4765V8.56595H33.2265ZM33.2265 20.95V20.7H28.7265V20.95V21.2H33.2265V20.95ZM28.7265 20.95H28.9765V5.21795H28.7265H28.4765V20.95H28.7265ZM44.9265 7.19795L45.0239 6.96771L40.3439 4.98771L40.2465 5.21795L40.1491 5.44819L44.8291 7.42819L44.9265 7.19795ZM40.2465 5.21795H39.9965V10.114H40.2465H40.4965V5.21795H40.2465ZM40.2465 10.114V10.364H44.9265V10.114V9.86395H40.2465V10.114ZM44.9265 10.114H45.1765V7.19795H44.9265H44.6765V10.114H44.9265ZM48.151 7.59395L48.024 7.37861L47.901 7.45115V7.59395H48.151ZM48.151 18.43H47.901V18.5728L48.024 18.6453L48.151 18.43ZM52.363 20.914L52.236 21.1293L52.2948 21.164H52.363V20.914ZM58.051 20.914V21.164H58.301V20.914H58.051ZM58.051 17.062H58.301V16.812H58.051V17.062ZM52.651 17.062H52.401V17.312H52.651V17.062ZM52.651 8.49395V8.24395H52.401V8.49395H52.651ZM58.051 8.49395V8.74395H58.301V8.49395H58.051ZM58.051 5.10995H58.301V4.85995H58.051V5.10995ZM52.363 5.10995V4.85995H52.2948L52.236 4.89461L52.363 5.10995ZM69.283 7.59395H69.533V7.45115L69.41 7.37861L69.283 7.59395ZM69.283 18.43L69.41 18.6453L69.533 18.5728V18.43H69.283ZM65.071 20.914V21.164H65.1392L65.198 21.1293L65.071 20.914ZM59.347 20.914H59.097V21.164H59.347V20.914ZM59.347 17.062V16.812H59.097V17.062H59.347ZM64.783 17.062V17.312H65.033V17.062H64.783ZM64.783 8.49395H65.033V8.24395H64.783V8.49395ZM59.347 8.49395H59.097V8.74395H59.347V8.49395ZM59.347 5.10995V4.85995H59.097V5.10995H59.347ZM65.071 5.10995L65.198 4.89461L65.1392 4.85995H65.071V5.10995ZM48.151 7.59395H47.901V18.43H48.151H48.401V7.59395H48.151ZM48.151 18.43L48.024 18.6453L52.236 21.1293L52.363 20.914L52.49 20.6986L48.278 18.2146L48.151 18.43ZM52.363 20.914V21.164H58.051V20.914V20.664H52.363V20.914ZM58.051 20.914H58.301V17.062H58.051H57.801V20.914H58.051ZM58.051 17.062V16.812H52.651V17.062V17.312H58.051V17.062ZM52.651 17.062H52.901V8.49395H52.651H52.401V17.062H52.651ZM52.651 8.49395V8.74395H58.051V8.49395V8.24395H52.651V8.49395ZM58.051 8.49395H58.301V5.10995H58.051H57.801V8.49395H58.051ZM58.051 5.10995V4.85995H52.363V5.10995V5.35995H58.051V5.10995ZM52.363 5.10995L52.236 4.89461L48.024 7.37861L48.151 7.59395L48.278 7.80929L52.49 5.32529L52.363 5.10995ZM69.283 7.59395H69.033V18.43H69.283H69.533V7.59395H69.283ZM69.283 18.43L69.156 18.2146L64.944 20.6986L65.071 20.914L65.198 21.1293L69.41 18.6453L69.283 18.43ZM65.071 20.914V20.664H59.347V20.914V21.164H65.071V20.914ZM59.347 20.914H59.597V17.062H59.347H59.097V20.914H59.347ZM59.347 17.062V17.312H64.783V17.062V16.812H59.347V17.062ZM64.783 17.062H65.033V8.49395H64.783H64.533V17.062H64.783ZM64.783 8.49395V8.24395H59.347V8.49395V8.74395H64.783V8.49395ZM59.347 8.49395H59.597V5.10995H59.347H59.097V8.49395H59.347ZM59.347 5.10995V5.35995H65.071V5.10995V4.85995H59.347V5.10995ZM65.071 5.10995L64.944 5.32529L69.156 7.80929L69.283 7.59395L69.41 7.37861L65.198 4.89461L65.071 5.10995ZM64.6055 22.354V22.104H64.3555V22.354H64.6055ZM69.1415 22.354H69.3915V22.104H69.1415V22.354ZM69.1415 24.19H68.8915V24.44H69.1415V24.19ZM74.5055 24.19H74.7555V23.94H74.5055V24.19ZM74.5055 27.97V28.22H74.7555V27.97H74.5055ZM68.7815 27.97L68.6537 28.1848L68.7128 28.22H68.7815V27.97ZM64.6055 25.486H64.3555V25.6281L64.4777 25.7008L64.6055 25.486ZM80.5895 5.10995H80.8395V4.85995H80.5895V5.10995ZM80.5895 25.486L80.7118 25.704L80.8395 25.6324V25.486H80.5895ZM76.1615 27.97H75.9115V28.3968L76.2838 28.188L76.1615 27.97ZM76.1615 5.10995V4.85995H75.9115V5.10995H76.1615ZM80.6255 3.66995L80.6235 3.91994L80.8755 3.92197V3.66995H80.6255ZM80.6255 0.285951H80.8755V0.0359511H80.6255V0.285951ZM76.1615 0.285951V0.0359511H75.9115V0.285951H76.1615ZM76.1615 3.63395H75.9115V3.88194L76.1595 3.88394L76.1615 3.63395ZM64.6055 22.354V22.604H69.1415V22.354V22.104H64.6055V22.354ZM69.1415 22.354H68.8915V24.19H69.1415H69.3915V22.354H69.1415ZM69.1415 24.19V24.44H74.5055V24.19V23.94H69.1415V24.19ZM74.5055 24.19H74.2555V27.97H74.5055H74.7555V24.19H74.5055ZM74.5055 27.97V27.72H68.7815V27.97V28.22H74.5055V27.97ZM68.7815 27.97L68.9093 27.7551L64.7333 25.2711L64.6055 25.486L64.4777 25.7008L68.6537 28.1848L68.7815 27.97ZM64.6055 25.486H64.8555V22.354H64.6055H64.3555V25.486H64.6055ZM80.5895 5.10995H80.3395V25.486H80.5895H80.8395V5.10995H80.5895ZM80.5895 25.486L80.4672 25.2679L76.0392 27.7519L76.1615 27.97L76.2838 28.188L80.7118 25.704L80.5895 25.486ZM76.1615 27.97H76.4115V24.19H76.1615H75.9115V27.97H76.1615ZM76.1615 24.19H76.4115V5.10995H76.1615H75.9115V24.19H76.1615ZM76.1615 5.10995V5.35995H80.5895V5.10995V4.85995H76.1615V5.10995ZM80.6255 3.66995H80.8755V0.285951H80.6255H80.3755V3.66995H80.6255ZM80.6255 0.285951V0.0359511H76.1615V0.285951V0.535951H80.6255V0.285951ZM76.1615 0.285951H75.9115V3.63395H76.1615H76.4115V0.285951H76.1615ZM76.1615 3.63395L76.1595 3.88394L80.6235 3.91994L80.6255 3.66995L80.6275 3.41996L76.1635 3.38396L76.1615 3.63395ZM108.848 11.698L108.974 11.9138L109.098 11.8414V11.698H108.848ZM108.848 7.59395H109.098V7.45158L108.976 7.37894L108.848 7.59395ZM104.6 5.07395L104.728 4.85894L104.669 4.82395H104.6V5.07395ZM98.8401 5.07395V4.82395H98.5901V5.07395H98.8401ZM98.8401 8.45795H98.5901V8.70795H98.8401V8.45795ZM104.276 8.45795H104.526V8.20795H104.276V8.45795ZM104.276 11.41V11.66H104.526V11.41H104.276ZM98.8401 11.41V11.16H98.5901V11.41H98.8401ZM98.8401 14.182H98.5901V14.432H98.8401V14.182ZM104.6 14.182V14.432H104.668L104.726 14.3978L104.6 14.182ZM108.848 15.946H109.098V15.696H108.848V15.946ZM104.132 15.946V15.696H103.882V15.946H104.132ZM104.132 17.134V17.384H104.382V17.134H104.132ZM98.8401 17.134V16.884H98.5901V17.134H98.8401ZM98.8401 20.95H98.5901V21.2H98.8401V20.95ZM104.6 20.95V21.2H104.668L104.726 21.1658L104.6 20.95ZM108.848 18.466L108.974 18.6818L109.098 18.6094V18.466H108.848ZM87.1041 18.466H86.8541V18.6094L86.9779 18.6818L87.1041 18.466ZM87.1041 7.59395L86.9766 7.37894L86.8541 7.45158V7.59395H87.1041ZM91.3521 5.07395V4.82395H91.2835L91.2246 4.85894L91.3521 5.07395ZM97.0761 5.07395H97.3261V4.82395H97.0761V5.07395ZM97.0761 8.45795V8.70795H97.3261V8.45795H97.0761ZM91.6401 8.45795V8.20795H91.3901V8.45795H91.6401ZM91.6401 11.41H91.3901V11.66H91.6401V11.41ZM97.0761 11.41H97.3261V11.16H97.0761V11.41ZM97.0761 14.182V14.432H97.3261V14.182H97.0761ZM91.6401 14.182V13.932H91.3901V14.182H91.6401ZM91.6401 17.134H91.3901V17.384H91.6401V17.134ZM97.0761 17.134H97.3261V16.884H97.0761V17.134ZM97.0761 20.95V21.2H97.3261V20.95H97.0761ZM91.3521 20.95L91.2259 21.1658L91.2844 21.2H91.3521V20.95ZM108.848 11.698H109.098V7.59395H108.848H108.598V11.698H108.848ZM108.848 7.59395L108.976 7.37894L104.728 4.85894L104.6 5.07395L104.473 5.28896L108.721 7.80896L108.848 7.59395ZM104.6 5.07395V4.82395H98.8401V5.07395V5.32395H104.6V5.07395ZM98.8401 5.07395H98.5901V8.45795H98.8401H99.0901V5.07395H98.8401ZM98.8401 8.45795V8.70795H104.276V8.45795V8.20795H98.8401V8.45795ZM104.276 8.45795H104.026V11.41H104.276H104.526V8.45795H104.276ZM104.276 11.41V11.16H98.8401V11.41V11.66H104.276V11.41ZM98.8401 11.41H98.5901V14.182H98.8401H99.0901V11.41H98.8401ZM98.8401 14.182V14.432H104.6V14.182V13.932H98.8401V14.182ZM104.6 14.182L104.726 14.3978L108.974 11.9138L108.848 11.698L108.722 11.4821L104.474 13.9661L104.6 14.182ZM108.848 15.946V15.696H104.132V15.946V16.196H108.848V15.946ZM104.132 15.946H103.882V17.134H104.132H104.382V15.946H104.132ZM104.132 17.134V16.884H98.8401V17.134V17.384H104.132V17.134ZM98.8401 17.134H98.5901V20.95H98.8401H99.0901V17.134H98.8401ZM98.8401 20.95V21.2H104.6V20.95V20.7H98.8401V20.95ZM104.6 20.95L104.726 21.1658L108.974 18.6818L108.848 18.466L108.722 18.2501L104.474 20.7341L104.6 20.95ZM108.848 18.466H109.098V15.946H108.848H108.598V18.466H108.848ZM87.1041 18.466H87.3541V7.59395H87.1041H86.8541V18.466H87.1041ZM87.1041 7.59395L87.2317 7.80896L91.4797 5.28896L91.3521 5.07395L91.2246 4.85894L86.9766 7.37894L87.1041 7.59395ZM91.3521 5.07395V5.32395H97.0761V5.07395V4.82395H91.3521V5.07395ZM97.0761 5.07395H96.8261V8.45795H97.0761H97.3261V5.07395H97.0761ZM97.0761 8.45795V8.20795H91.6401V8.45795V8.70795H97.0761V8.45795ZM91.6401 8.45795H91.3901V11.41H91.6401H91.8901V8.45795H91.6401ZM91.6401 11.41V11.66H97.0761V11.41V11.16H91.6401V11.41ZM97.0761 11.41H96.8261V14.182H97.0761H97.3261V11.41H97.0761ZM97.0761 14.182V13.932H91.6401V14.182V14.432H97.0761V14.182ZM91.6401 14.182H91.3901V17.134H91.6401H91.8901V14.182H91.6401ZM91.6401 17.134V17.384H97.0761V17.134V16.884H91.6401V17.134ZM97.0761 17.134H96.8261V20.95H97.0761H97.3261V17.134H97.0761ZM97.0761 20.95V20.7H91.3521V20.95V21.2H97.0761V20.95ZM91.3521 20.95L91.4783 20.7341L87.2303 18.2501L87.1041 18.466L86.9779 18.6818L91.2259 21.1658L91.3521 20.95ZM114.596 7.55795L114.467 7.34408L114.346 7.41704V7.55795H114.596ZM118.7 5.07395V4.82395H118.631L118.571 4.86008L118.7 5.07395ZM124.604 5.07395H124.854V4.82395H124.604V5.07395ZM124.604 8.45795V8.70795H124.854V8.45795H124.604ZM119.168 8.45795V8.20795H118.918V8.45795H119.168ZM119.168 17.134H118.918V17.384H119.168V17.134ZM124.46 17.134H124.71V16.884H124.46V17.134ZM124.46 20.95V21.2H124.71V20.95H124.46ZM118.7 20.95L118.571 21.1638L118.631 21.2H118.7V20.95ZM114.596 18.466H114.346V18.6069L114.467 18.6798L114.596 18.466ZM136.196 10.078V10.328H136.446V10.078H136.196ZM136.196 7.55795H136.446V7.41704L136.326 7.34408L136.196 7.55795ZM132.092 5.07395L132.222 4.86008L132.162 4.82395H132.092V5.07395ZM126.224 5.07395V4.82395H125.974V5.07395H126.224ZM126.224 8.45795H125.974V8.70795H126.224V8.45795ZM131.66 8.45795H131.91V8.20795H131.66V8.45795ZM131.66 10.078H131.41V10.328H131.66V10.078ZM136.196 15.946H136.446V15.696H136.196V15.946ZM136.196 18.466L136.326 18.6798L136.446 18.6069V18.466H136.196ZM132.092 20.95V21.2H132.162L132.222 21.1638L132.092 20.95ZM126.224 20.95H125.974V21.2H126.224V20.95ZM126.224 17.134V16.884H125.974V17.134H126.224ZM131.66 17.134V17.384H131.91V17.134H131.66ZM131.66 15.946V15.696H131.41V15.946H131.66ZM114.596 7.55795L114.726 7.77183L118.83 5.28783L118.7 5.07395L118.571 4.86008L114.467 7.34408L114.596 7.55795ZM118.7 5.07395V5.32395H124.604V5.07395V4.82395H118.7V5.07395ZM124.604 5.07395H124.354V8.45795H124.604H124.854V5.07395H124.604ZM124.604 8.45795V8.20795H119.168V8.45795V8.70795H124.604V8.45795ZM119.168 8.45795H118.918V17.134H119.168H119.418V8.45795H119.168ZM119.168 17.134V17.384H124.46V17.134V16.884H119.168V17.134ZM124.46 17.134H124.21V20.95H124.46H124.71V17.134H124.46ZM124.46 20.95V20.7H118.7V20.95V21.2H124.46V20.95ZM118.7 20.95L118.83 20.7361L114.726 18.2521L114.596 18.466L114.467 18.6798L118.571 21.1638L118.7 20.95ZM114.596 18.466H114.846V7.55795H114.596H114.346V18.466H114.596ZM136.196 10.078H136.446V7.55795H136.196H135.946V10.078H136.196ZM136.196 7.55795L136.326 7.34408L132.222 4.86008L132.092 5.07395L131.963 5.28783L136.067 7.77183L136.196 7.55795ZM132.092 5.07395V4.82395H126.224V5.07395V5.32395H132.092V5.07395ZM126.224 5.07395H125.974V8.45795H126.224H126.474V5.07395H126.224ZM126.224 8.45795V8.70795H131.66V8.45795V8.20795H126.224V8.45795ZM131.66 8.45795H131.41V10.078H131.66H131.91V8.45795H131.66ZM131.66 10.078V10.328H136.196V10.078V9.82795H131.66V10.078ZM136.196 15.946H135.946V18.466H136.196H136.446V15.946H136.196ZM136.196 18.466L136.067 18.2521L131.963 20.7361L132.092 20.95L132.222 21.1638L136.326 18.6798L136.196 18.466ZM132.092 20.95V20.7H126.224V20.95V21.2H132.092V20.95ZM126.224 20.95H126.474V17.134H126.224H125.974V20.95H126.224ZM126.224 17.134V17.384H131.66V17.134V16.884H126.224V17.134ZM131.66 17.134H131.91V15.946H131.66H131.41V17.134H131.66ZM131.66 15.946V16.196H136.196V15.946V15.696H131.66V15.946ZM148.788 5.21795V4.96795H148.538V5.21795H148.788ZM154.188 5.21795H154.438V4.96795H154.188V5.21795ZM154.188 8.56595V8.81595H154.438V8.56595H154.188ZM148.788 8.56595H148.538V8.81595H148.788V8.56595ZM158.724 15.55H158.974V15.3H158.724V15.55ZM158.724 18.466L158.853 18.6798L158.974 18.6069V18.466H158.724ZM154.62 20.95V21.2H154.69L154.749 21.1638L154.62 20.95ZM148.788 20.95H148.538V21.2H148.788V20.95ZM148.788 17.17V16.92H148.538V17.17H148.788ZM154.188 17.17V17.42H154.438V17.17H154.188ZM154.188 15.55V15.3H153.938V15.55H154.188ZM147.168 2.73395H147.418V2.30984L147.047 2.51522L147.168 2.73395ZM147.168 20.95L147.047 21.1688L147.418 21.3735V20.95H147.168ZM142.668 18.466H142.418V18.6135L142.547 18.6848L142.668 18.466ZM142.668 8.56595H142.918V8.31316L142.665 8.31597L142.668 8.56595ZM139.428 8.60195H139.178V8.85474L139.431 8.85193L139.428 8.60195ZM139.428 7.01795L139.307 6.79922L139.178 6.87058V7.01795H139.428ZM148.788 5.21795V5.46795H154.188V5.21795V4.96795H148.788V5.21795ZM154.188 5.21795H153.938V8.56595H154.188H154.438V5.21795H154.188ZM154.188 8.56595V8.31595H148.788V8.56595V8.81595H154.188V8.56595ZM148.788 8.56595H149.038V5.21795H148.788H148.538V8.56595H148.788ZM158.724 15.55H158.474V18.466H158.724H158.974V15.55H158.724ZM158.724 18.466L158.594 18.2521L154.49 20.7361L154.62 20.95L154.749 21.1638L158.853 18.6798L158.724 18.466ZM154.62 20.95V20.7H148.788V20.95V21.2H154.62V20.95ZM148.788 20.95H149.038V17.17H148.788H148.538V20.95H148.788ZM148.788 17.17V17.42H154.188V17.17V16.92H148.788V17.17ZM154.188 17.17H154.438V15.55H154.188H153.938V17.17H154.188ZM154.188 15.55V15.8H158.724V15.55V15.3H154.188V15.55ZM147.168 2.73395H146.918V17.17H147.168H147.418V2.73395H147.168ZM147.168 17.17H146.918V20.95H147.168H147.418V17.17H147.168ZM147.168 20.95L147.289 20.7311L142.789 18.2471L142.668 18.466L142.547 18.6848L147.047 21.1688L147.168 20.95ZM142.668 18.466H142.918V8.56595H142.668H142.418V18.466H142.668ZM142.668 8.56595L142.665 8.31597L139.425 8.35197L139.428 8.60195L139.431 8.85193L142.671 8.81594L142.668 8.56595ZM139.428 8.60195H139.678V7.01795H139.428H139.178V8.60195H139.428ZM139.428 7.01795L139.549 7.23668L147.289 2.95268L147.168 2.73395L147.047 2.51522L139.307 6.79922L139.428 7.01795ZM184.146 18.466L184.276 18.6798L184.396 18.6069V18.466H184.146ZM180.042 20.95V21.2H180.112L180.172 21.1638L180.042 20.95ZM174.246 20.95H173.996V21.2H174.246V20.95ZM174.246 17.17V16.92H173.996V17.17H174.246ZM179.79 17.17V17.42H180.04V17.17H179.79ZM179.79 14.254H180.04V14.004H179.79V14.254ZM174.354 14.254H174.104V14.504H174.354V14.254ZM174.354 11.446V11.196H174.104V11.446H174.354ZM180.042 11.446L180.173 11.2329L180.113 11.196H180.042V11.446ZM184.146 13.966H184.396V13.8261L184.277 13.7529L184.146 13.966ZM162.69 7.70195L162.561 7.48808L162.44 7.56104V7.70195H162.69ZM166.794 5.21795V4.96795H166.724L166.665 5.00408L166.794 5.21795ZM172.626 5.21795H172.876V4.96795H172.626V5.21795ZM172.626 8.56595V8.81595H172.876V8.56595H172.626ZM167.226 8.56595V8.31595H166.976V8.56595H167.226ZM167.226 11.446H166.976V11.696H167.226V11.446ZM172.626 11.446H172.876V11.196H172.626V11.446ZM172.626 14.254V14.504H172.876V14.254H172.626ZM166.794 14.254L166.665 14.4678L166.724 14.504H166.794V14.254ZM162.69 11.77H162.44V11.9109L162.561 11.9838L162.69 11.77ZM167.226 15.946H167.476V15.696H167.226V15.946ZM167.226 17.17H166.976V17.42H167.226V17.17ZM172.626 17.17H172.876V16.92H172.626V17.17ZM172.626 20.95V21.2H172.876V20.95H172.626ZM166.794 20.95L166.665 21.1638L166.724 21.2H166.794V20.95ZM162.69 18.466H162.44V18.6069L162.561 18.6798L162.69 18.466ZM162.69 15.946V15.696H162.44V15.946H162.69ZM179.646 10.114H179.396V10.364H179.646V10.114ZM179.646 8.56595H179.896V8.31595H179.646V8.56595ZM174.246 8.56595H173.996V8.81595H174.246V8.56595ZM174.246 5.21795V4.96795H173.996V5.21795H174.246ZM180.042 5.21795L180.172 5.00408L180.112 4.96795H180.042V5.21795ZM184.146 7.70195H184.396V7.56104L184.276 7.48808L184.146 7.70195ZM184.146 10.114V10.364H184.396V10.114H184.146ZM184.146 18.466L184.017 18.2521L179.913 20.7361L180.042 20.95L180.172 21.1638L184.276 18.6798L184.146 18.466ZM180.042 20.95V20.7H174.246V20.95V21.2H180.042V20.95ZM174.246 20.95H174.496V17.17H174.246H173.996V20.95H174.246ZM174.246 17.17V17.42H179.79V17.17V16.92H174.246V17.17ZM179.79 17.17H180.04V14.254H179.79H179.54V17.17H179.79ZM179.79 14.254V14.004H174.354V14.254V14.504H179.79V14.254ZM174.354 14.254H174.604V11.446H174.354H174.104V14.254H174.354ZM174.354 11.446V11.696H180.042V11.446V11.196H174.354V11.446ZM180.042 11.446L179.911 11.659L184.015 14.179L184.146 13.966L184.277 13.7529L180.173 11.2329L180.042 11.446ZM184.146 13.966H183.896V18.466H184.146H184.396V13.966H184.146ZM162.69 7.70195L162.82 7.91583L166.924 5.43183L166.794 5.21795L166.665 5.00408L162.561 7.48808L162.69 7.70195ZM166.794 5.21795V5.46795H172.626V5.21795V4.96795H166.794V5.21795ZM172.626 5.21795H172.376V8.56595H172.626H172.876V5.21795H172.626ZM172.626 8.56595V8.31595H167.226V8.56595V8.81595H172.626V8.56595ZM167.226 8.56595H166.976V11.446H167.226H167.476V8.56595H167.226ZM167.226 11.446V11.696H172.626V11.446V11.196H167.226V11.446ZM172.626 11.446H172.376V14.254H172.626H172.876V11.446H172.626ZM172.626 14.254V14.004H166.794V14.254V14.504H172.626V14.254ZM166.794 14.254L166.924 14.0401L162.82 11.5561L162.69 11.77L162.561 11.9838L166.665 14.4678L166.794 14.254ZM162.69 11.77H162.94V7.70195H162.69H162.44V11.77H162.69ZM167.226 15.946H166.976V17.17H167.226H167.476V15.946H167.226ZM167.226 17.17V17.42H172.626V17.17V16.92H167.226V17.17ZM172.626 17.17H172.376V20.95H172.626H172.876V17.17H172.626ZM172.626 20.95V20.7H166.794V20.95V21.2H172.626V20.95ZM166.794 20.95L166.924 20.7361L162.82 18.2521L162.69 18.466L162.561 18.6798L166.665 21.1638L166.794 20.95ZM162.69 18.466H162.94V15.946H162.69H162.44V18.466H162.69ZM162.69 15.946V16.196H167.226V15.946V15.696H162.69V15.946ZM179.646 10.114H179.896V8.56595H179.646H179.396V10.114H179.646ZM179.646 8.56595V8.31595H174.246V8.56595V8.81595H179.646V8.56595ZM174.246 8.56595H174.496V5.21795H174.246H173.996V8.56595H174.246ZM174.246 5.21795V5.46795H180.042V5.21795V4.96795H174.246V5.21795ZM180.042 5.21795L179.913 5.43183L184.017 7.91583L184.146 7.70195L184.276 7.48808L180.172 5.00408L180.042 5.21795ZM184.146 7.70195H183.896V10.114H184.146H184.396V7.70195H184.146ZM184.146 10.114V9.86395H179.646V10.114V10.364H184.146V10.114Z" fill="white" mask="url(#path-1-outside-1_257_15)"/>
</svg>
