<svg width="267" height="22" viewBox="0 0 267 22" fill="none" xmlns="http://www.w3.org/2000/svg">
<mask id="path-1-outside-1_257_15" maskUnits="userSpaceOnUse" x="-0.350098" y="-0.013916" width="268" height="22" fill="black">
<rect fill="white" x="-0.350098" y="-0.013916" width="268" height="22"/>
<path d="M0.249902 0.286082H11.9139V4.35408H4.9299V8.60208H11.9139V12.8141H4.9299V20.9861H0.249902V0.286082ZM25.1979 10.3661V2.77008L20.9859 0.286082H13.5339V4.35408H20.5179V8.60208H13.5339V12.8141H20.9859L25.1979 10.3661ZM50.174 20.9861H45.674V19.3661L40.274 20.9861V17.2061H45.674V5.25408H50.174V20.9861ZM28.718 18.5021L32.786 20.9861H38.618V17.2061H33.254V5.25408H28.718V18.5021ZM57.3788 0.250083H61.9148V5.21808H67.3148V8.56608H61.9148V17.2061H67.1708V20.9861H57.3788V0.250083ZM78.8348 7.70208L74.7308 5.21808H68.8988V8.56608H74.4428V17.2061H69.0428V20.9861H74.7308L78.8348 18.5021V7.70208ZM82.3749 0.286082H86.9829V21.0221H82.3749V0.286082ZM98.0034 5.14608V21.0221H93.4674V5.14608H98.0034ZM97.9314 3.67008H93.4674V0.322084H97.9314V3.67008ZM103.768 7.59408L107.872 5.11008H113.776V8.49408H108.34V17.1701H113.632V20.9861H107.872L103.768 18.5021V7.59408ZM125.368 10.1141V7.59408L121.264 5.11008H115.396V8.49408H120.832V10.1141H125.368ZM125.368 15.9821V18.5021L121.264 20.9861H115.396V17.1701H120.832V15.9821H125.368ZM131.12 13.9661V18.5381L135.224 21.0221H141.128V17.2061H135.692V14.2541H141.128V11.4821H135.224L131.12 13.9661ZM131.12 10.1501H135.692V8.53008H141.128V5.14608H135.224L131.12 7.66608V10.1501ZM152.72 7.66608V21.0221H142.856V17.2061H148.148V14.2541H142.712V11.4821H148.148V8.53008H142.712V5.14608H148.616L152.72 7.66608ZM165.663 5.25408H171.063V8.60208H165.663V5.25408ZM175.599 15.5861V18.5021L171.495 20.9861H165.663V17.2061H171.063V15.5861H175.599ZM164.043 2.77008V17.2061V20.9861L159.543 18.5021V8.60208L156.303 8.63808V7.05408L164.043 2.77008ZM184.101 5.14608V21.0221H179.565V5.14608H184.101ZM184.029 3.67008H179.565V0.322084H184.029V3.67008ZM189.866 7.63008V18.4661L194.078 20.9501H199.766V17.0981H194.366V8.53008H199.766V5.14608H194.078L189.866 7.63008ZM210.998 7.63008V18.4661L206.786 20.9501H201.062V17.0981H206.498V8.53008H201.062V5.14608H206.786L210.998 7.63008ZM217.48 5.14608H222.052V6.69408L227.38 5.14608V8.53008H222.052V20.9501H217.48V5.14608ZM239.044 7.63008L234.796 5.14608H229.108V8.53008H234.544V20.9501H239.044V7.63008ZM266.623 18.5021L262.519 20.9861H256.723V17.2061H262.267V14.2901H256.831V11.4821H262.519L266.623 14.0021V18.5021ZM245.167 7.73808L249.271 5.25408H255.103V8.60208H249.703V11.4821H255.103V14.2901H249.271L245.167 11.8061V7.73808ZM249.703 15.9821V17.2061H255.103V20.9861H249.271L245.167 18.5021V15.9821H249.703ZM262.123 10.1501V8.60208H256.723V5.25408H262.519L266.623 7.73808V10.1501H262.123Z"/>
</mask>
<path d="M0.249902 0.286082H11.9139V4.35408H4.9299V8.60208H11.9139V12.8141H4.9299V20.9861H0.249902V0.286082ZM25.1979 10.3661V2.77008L20.9859 0.286082H13.5339V4.35408H20.5179V8.60208H13.5339V12.8141H20.9859L25.1979 10.3661ZM50.174 20.9861H45.674V19.3661L40.274 20.9861V17.2061H45.674V5.25408H50.174V20.9861ZM28.718 18.5021L32.786 20.9861H38.618V17.2061H33.254V5.25408H28.718V18.5021ZM57.3788 0.250083H61.9148V5.21808H67.3148V8.56608H61.9148V17.2061H67.1708V20.9861H57.3788V0.250083ZM78.8348 7.70208L74.7308 5.21808H68.8988V8.56608H74.4428V17.2061H69.0428V20.9861H74.7308L78.8348 18.5021V7.70208ZM82.3749 0.286082H86.9829V21.0221H82.3749V0.286082ZM98.0034 5.14608V21.0221H93.4674V5.14608H98.0034ZM97.9314 3.67008H93.4674V0.322084H97.9314V3.67008ZM103.768 7.59408L107.872 5.11008H113.776V8.49408H108.34V17.1701H113.632V20.9861H107.872L103.768 18.5021V7.59408ZM125.368 10.1141V7.59408L121.264 5.11008H115.396V8.49408H120.832V10.1141H125.368ZM125.368 15.9821V18.5021L121.264 20.9861H115.396V17.1701H120.832V15.9821H125.368ZM131.12 13.9661V18.5381L135.224 21.0221H141.128V17.2061H135.692V14.2541H141.128V11.4821H135.224L131.12 13.9661ZM131.12 10.1501H135.692V8.53008H141.128V5.14608H135.224L131.12 7.66608V10.1501ZM152.72 7.66608V21.0221H142.856V17.2061H148.148V14.2541H142.712V11.4821H148.148V8.53008H142.712V5.14608H148.616L152.72 7.66608ZM165.663 5.25408H171.063V8.60208H165.663V5.25408ZM175.599 15.5861V18.5021L171.495 20.9861H165.663V17.2061H171.063V15.5861H175.599ZM164.043 2.77008V17.2061V20.9861L159.543 18.5021V8.60208L156.303 8.63808V7.05408L164.043 2.77008ZM184.101 5.14608V21.0221H179.565V5.14608H184.101ZM184.029 3.67008H179.565V0.322084H184.029V3.67008ZM189.866 7.63008V18.4661L194.078 20.9501H199.766V17.0981H194.366V8.53008H199.766V5.14608H194.078L189.866 7.63008ZM210.998 7.63008V18.4661L206.786 20.9501H201.062V17.0981H206.498V8.53008H201.062V5.14608H206.786L210.998 7.63008ZM217.48 5.14608H222.052V6.69408L227.38 5.14608V8.53008H222.052V20.9501H217.48V5.14608ZM239.044 7.63008L234.796 5.14608H229.108V8.53008H234.544V20.9501H239.044V7.63008ZM266.623 18.5021L262.519 20.9861H256.723V17.2061H262.267V14.2901H256.831V11.4821H262.519L266.623 14.0021V18.5021ZM245.167 7.73808L249.271 5.25408H255.103V8.60208H249.703V11.4821H255.103V14.2901H249.271L245.167 11.8061V7.73808ZM249.703 15.9821V17.2061H255.103V20.9861H249.271L245.167 18.5021V15.9821H249.703ZM262.123 10.1501V8.60208H256.723V5.25408H262.519L266.623 7.73808V10.1501H262.123Z" fill="#DC38E8"/>
<path d="M0.249902 0.286082V0.0360823H-9.76026e-05V0.286082H0.249902ZM11.9139 0.286082H12.1639V0.0360823H11.9139V0.286082ZM11.9139 4.35408V4.60408H12.1639V4.35408H11.9139ZM4.9299 4.35408V4.10408H4.6799V4.35408H4.9299ZM4.9299 8.60208H4.6799V8.85208H4.9299V8.60208ZM11.9139 8.60208H12.1639V8.35208H11.9139V8.60208ZM11.9139 12.8141V13.0641H12.1639V12.8141H11.9139ZM4.9299 12.8141V12.5641H4.6799V12.8141H4.9299ZM4.9299 20.9861V21.2361H5.1799V20.9861H4.9299ZM0.249902 20.9861H-9.76026e-05V21.2361H0.249902V20.9861ZM25.1979 10.3661L25.3235 10.5822L25.4479 10.5099V10.3661H25.1979ZM25.1979 2.77008H25.4479V2.62728L25.3249 2.55474L25.1979 2.77008ZM20.9859 0.286082L21.1129 0.0707408L21.0541 0.0360823H20.9859V0.286082ZM13.5339 0.286082V0.0360823H13.2839V0.286082H13.5339ZM13.5339 4.35408H13.2839V4.60408H13.5339V4.35408ZM20.5179 4.35408H20.7679V4.10408H20.5179V4.35408ZM20.5179 8.60208V8.85208H20.7679V8.60208H20.5179ZM13.5339 8.60208V8.35208H13.2839V8.60208H13.5339ZM13.5339 12.8141H13.2839V13.0641H13.5339V12.8141ZM20.9859 12.8141V13.0641H21.0533L21.1115 13.0302L20.9859 12.8141ZM0.249902 0.286082V0.536082H11.9139V0.286082V0.0360823H0.249902V0.286082ZM11.9139 0.286082H11.6639V4.35408H11.9139H12.1639V0.286082H11.9139ZM11.9139 4.35408V4.10408H4.9299V4.35408V4.60408H11.9139V4.35408ZM4.9299 4.35408H4.6799V8.60208H4.9299H5.1799V4.35408H4.9299ZM4.9299 8.60208V8.85208H11.9139V8.60208V8.35208H4.9299V8.60208ZM11.9139 8.60208H11.6639V12.8141H11.9139H12.1639V8.60208H11.9139ZM11.9139 12.8141V12.5641H4.9299V12.8141V13.0641H11.9139V12.8141ZM4.9299 12.8141H4.6799V20.9861H4.9299H5.1799V12.8141H4.9299ZM4.9299 20.9861V20.7361H0.249902V20.9861V21.2361H4.9299V20.9861ZM0.249902 20.9861H0.499902V0.286082H0.249902H-9.76026e-05V20.9861H0.249902ZM25.1979 10.3661H25.4479V2.77008H25.1979H24.9479V10.3661H25.1979ZM25.1979 2.77008L25.3249 2.55474L21.1129 0.0707408L20.9859 0.286082L20.8589 0.501424L25.0709 2.98542L25.1979 2.77008ZM20.9859 0.286082V0.0360823H13.5339V0.286082V0.536082H20.9859V0.286082ZM13.5339 0.286082H13.2839V4.35408H13.5339H13.7839V0.286082H13.5339ZM13.5339 4.35408V4.60408H20.5179V4.35408V4.10408H13.5339V4.35408ZM20.5179 4.35408H20.2679V8.60208H20.5179H20.7679V4.35408H20.5179ZM20.5179 8.60208V8.35208H13.5339V8.60208V8.85208H20.5179V8.60208ZM13.5339 8.60208H13.2839V12.8141H13.5339H13.7839V8.60208H13.5339ZM13.5339 12.8141V13.0641H20.9859V12.8141V12.5641H13.5339V12.8141ZM20.9859 12.8141L21.1115 13.0302L25.3235 10.5822L25.1979 10.3661L25.0723 10.1499L20.8603 12.5979L20.9859 12.8141ZM50.174 20.9861V21.2361H50.424V20.9861H50.174ZM45.674 20.9861H45.424V21.2361H45.674V20.9861ZM45.674 19.3661H45.924V19.0301L45.6022 19.1266L45.674 19.3661ZM40.274 20.9861H40.024V21.3221L40.3459 21.2255L40.274 20.9861ZM40.274 17.2061V16.9561H40.024V17.2061H40.274ZM45.674 17.2061V17.4561H45.924V17.2061H45.674ZM45.674 5.25408V5.00408H45.424V5.25408H45.674ZM50.174 5.25408H50.424V5.00408H50.174V5.25408ZM28.718 18.5021H28.468V18.6424L28.5877 18.7155L28.718 18.5021ZM32.786 20.9861L32.6557 21.1995L32.7157 21.2361H32.786V20.9861ZM38.618 20.9861V21.2361H38.868V20.9861H38.618ZM38.618 17.2061H38.868V16.9561H38.618V17.2061ZM33.254 17.2061H33.004V17.4561H33.254V17.2061ZM33.254 5.25408H33.504V5.00408H33.254V5.25408ZM28.718 5.25408V5.00408H28.468V5.25408H28.718ZM50.174 20.9861V20.7361H45.674V20.9861V21.2361H50.174V20.9861ZM45.674 20.9861H45.924V19.3661H45.674H45.424V20.9861H45.674ZM45.674 19.3661L45.6022 19.1266L40.2022 20.7466L40.274 20.9861L40.3459 21.2255L45.7459 19.6055L45.674 19.3661ZM40.274 20.9861H40.524V17.2061H40.274H40.024V20.9861H40.274ZM40.274 17.2061V17.4561H45.674V17.2061V16.9561H40.274V17.2061ZM45.674 17.2061H45.924V5.25408H45.674H45.424V17.2061H45.674ZM45.674 5.25408V5.50408H50.174V5.25408V5.00408H45.674V5.25408ZM50.174 5.25408H49.924V20.9861H50.174H50.424V5.25408H50.174ZM28.718 18.5021L28.5877 18.7155L32.6557 21.1995L32.786 20.9861L32.9163 20.7727L28.8483 18.2887L28.718 18.5021ZM32.786 20.9861V21.2361H38.618V20.9861V20.7361H32.786V20.9861ZM38.618 20.9861H38.868V17.2061H38.618H38.368V20.9861H38.618ZM38.618 17.2061V16.9561H33.254V17.2061V17.4561H38.618V17.2061ZM33.254 17.2061H33.504V5.25408H33.254H33.004V17.2061H33.254ZM33.254 5.25408V5.00408H28.718V5.25408V5.50408H33.254V5.25408ZM28.718 5.25408H28.468V18.5021H28.718H28.968V5.25408H28.718ZM57.3788 0.250083V8.27312e-05H57.1288V0.250083H57.3788ZM61.9148 0.250083H62.1648V8.27312e-05H61.9148V0.250083ZM61.9148 5.21808H61.6648V5.46808H61.9148V5.21808ZM67.3148 5.21808H67.5648V4.96808H67.3148V5.21808ZM67.3148 8.56608V8.81608H67.5648V8.56608H67.3148ZM61.9148 8.56608V8.31608H61.6648V8.56608H61.9148ZM61.9148 17.2061H61.6648V17.4561H61.9148V17.2061ZM67.1708 17.2061H67.4208V16.9561H67.1708V17.2061ZM67.1708 20.9861V21.2361H67.4208V20.9861H67.1708ZM57.3788 20.9861H57.1288V21.2361H57.3788V20.9861ZM78.8348 7.70208H79.0848V7.56117L78.9643 7.48821L78.8348 7.70208ZM74.7308 5.21808L74.8603 5.00421L74.8006 4.96808H74.7308V5.21808ZM68.8988 5.21808V4.96808H68.6488V5.21808H68.8988ZM68.8988 8.56608H68.6488V8.81608H68.8988V8.56608ZM74.4428 8.56608H74.6928V8.31608H74.4428V8.56608ZM74.4428 17.2061V17.4561H74.6928V17.2061H74.4428ZM69.0428 17.2061V16.9561H68.7928V17.2061H69.0428ZM69.0428 20.9861H68.7928V21.2361H69.0428V20.9861ZM74.7308 20.9861V21.2361H74.8006L74.8603 21.2L74.7308 20.9861ZM78.8348 18.5021L78.9643 18.716L79.0848 18.643V18.5021H78.8348ZM57.3788 0.250083V0.500083H61.9148V0.250083V8.27312e-05H57.3788V0.250083ZM61.9148 0.250083H61.6648V5.21808H61.9148H62.1648V0.250083H61.9148ZM61.9148 5.21808V5.46808H67.3148V5.21808V4.96808H61.9148V5.21808ZM67.3148 5.21808H67.0648V8.56608H67.3148H67.5648V5.21808H67.3148ZM67.3148 8.56608V8.31608H61.9148V8.56608V8.81608H67.3148V8.56608ZM61.9148 8.56608H61.6648V17.2061H61.9148H62.1648V8.56608H61.9148ZM61.9148 17.2061V17.4561H67.1708V17.2061V16.9561H61.9148V17.2061ZM67.1708 17.2061H66.9208V20.9861H67.1708H67.4208V17.2061H67.1708ZM67.1708 20.9861V20.7361H57.3788V20.9861V21.2361H67.1708V20.9861ZM57.3788 20.9861H57.6288V0.250083H57.3788H57.1288V20.9861H57.3788ZM78.8348 7.70208L78.9643 7.48821L74.8603 5.00421L74.7308 5.21808L74.6014 5.43196L78.7054 7.91596L78.8348 7.70208ZM74.7308 5.21808V4.96808H68.8988V5.21808V5.46808H74.7308V5.21808ZM68.8988 5.21808H68.6488V8.56608H68.8988H69.1488V5.21808H68.8988ZM68.8988 8.56608V8.81608H74.4428V8.56608V8.31608H68.8988V8.56608ZM74.4428 8.56608H74.1928V17.2061H74.4428H74.6928V8.56608H74.4428ZM74.4428 17.2061V16.9561H69.0428V17.2061V17.4561H74.4428V17.2061ZM69.0428 17.2061H68.7928V20.9861H69.0428H69.2928V17.2061H69.0428ZM69.0428 20.9861V21.2361H74.7308V20.9861V20.7361H69.0428V20.9861ZM74.7308 20.9861L74.8603 21.2L78.9643 18.716L78.8348 18.5021L78.7054 18.2882L74.6014 20.7722L74.7308 20.9861ZM78.8348 18.5021H79.0848V7.70208H78.8348H78.5848V18.5021H78.8348ZM82.3749 0.286082V0.0360823H82.1249V0.286082H82.3749ZM86.9829 0.286082H87.2329V0.0360823H86.9829V0.286082ZM86.9829 21.0221V21.2721H87.2329V21.0221H86.9829ZM82.3749 21.0221H82.1249V21.2721H82.3749V21.0221ZM82.3749 0.286082V0.536082H86.9829V0.286082V0.0360823H82.3749V0.286082ZM86.9829 0.286082H86.7329V21.0221H86.9829H87.2329V0.286082H86.9829ZM86.9829 21.0221V20.7721H82.3749V21.0221V21.2721H86.9829V21.0221ZM82.3749 21.0221H82.6249V0.286082H82.3749H82.1249V21.0221H82.3749ZM98.0034 5.14608H98.2534V4.89608H98.0034V5.14608ZM98.0034 21.0221V21.2721H98.2534V21.0221H98.0034ZM93.4674 21.0221H93.2174V21.2721H93.4674V21.0221ZM93.4674 5.14608V4.89608H93.2174V5.14608H93.4674ZM97.9314 3.67008V3.92008H98.1814V3.67008H97.9314ZM93.4674 3.67008H93.2174V3.92008H93.4674V3.67008ZM93.4674 0.322084V0.072084H93.2174V0.322084H93.4674ZM97.9314 0.322084H98.1814V0.072084H97.9314V0.322084ZM98.0034 5.14608H97.7534V21.0221H98.0034H98.2534V5.14608H98.0034ZM98.0034 21.0221V20.7721H93.4674V21.0221V21.2721H98.0034V21.0221ZM93.4674 21.0221H93.7174V5.14608H93.4674H93.2174V21.0221H93.4674ZM93.4674 5.14608V5.39608H98.0034V5.14608V4.89608H93.4674V5.14608ZM97.9314 3.67008V3.42008H93.4674V3.67008V3.92008H97.9314V3.67008ZM93.4674 3.67008H93.7174V0.322084H93.4674H93.2174V3.67008H93.4674ZM93.4674 0.322084V0.572084H97.9314V0.322084V0.072084H93.4674V0.322084ZM97.9314 0.322084H97.6814V3.67008H97.9314H98.1814V0.322084H97.9314ZM103.768 7.59408L103.639 7.38021L103.518 7.45317V7.59408H103.768ZM107.872 5.11008V4.86008H107.802L107.743 4.89621L107.872 5.11008ZM113.776 5.11008H114.026V4.86008H113.776V5.11008ZM113.776 8.49408V8.74408H114.026V8.49408H113.776ZM108.34 8.49408V8.24408H108.09V8.49408H108.34ZM108.34 17.1701H108.09V17.4201H108.34V17.1701ZM113.632 17.1701H113.882V16.9201H113.632V17.1701ZM113.632 20.9861V21.2361H113.882V20.9861H113.632ZM107.872 20.9861L107.743 21.2L107.802 21.2361H107.872V20.9861ZM103.768 18.5021H103.518V18.643L103.639 18.716L103.768 18.5021ZM125.368 10.1141V10.3641H125.618V10.1141H125.368ZM125.368 7.59408H125.618V7.45317L125.498 7.38021L125.368 7.59408ZM121.264 5.11008L121.394 4.89621L121.334 4.86008H121.264V5.11008ZM115.396 5.11008V4.86008H115.146V5.11008H115.396ZM115.396 8.49408H115.146V8.74408H115.396V8.49408ZM120.832 8.49408H121.082V8.24408H120.832V8.49408ZM120.832 10.1141H120.582V10.3641H120.832V10.1141ZM125.368 15.9821H125.618V15.7321H125.368V15.9821ZM125.368 18.5021L125.498 18.716L125.618 18.643V18.5021H125.368ZM121.264 20.9861V21.2361H121.334L121.394 21.2L121.264 20.9861ZM115.396 20.9861H115.146V21.2361H115.396V20.9861ZM115.396 17.1701V16.9201H115.146V17.1701H115.396ZM120.832 17.1701V17.4201H121.082V17.1701H120.832ZM120.832 15.9821V15.7321H120.582V15.9821H120.832ZM103.768 7.59408L103.898 7.80796L108.002 5.32396L107.872 5.11008L107.743 4.89621L103.639 7.38021L103.768 7.59408ZM107.872 5.11008V5.36008H113.776V5.11008V4.86008H107.872V5.11008ZM113.776 5.11008H113.526V8.49408H113.776H114.026V5.11008H113.776ZM113.776 8.49408V8.24408H108.34V8.49408V8.74408H113.776V8.49408ZM108.34 8.49408H108.09V17.1701H108.34H108.59V8.49408H108.34ZM108.34 17.1701V17.4201H113.632V17.1701V16.9201H108.34V17.1701ZM113.632 17.1701H113.382V20.9861H113.632H113.882V17.1701H113.632ZM113.632 20.9861V20.7361H107.872V20.9861V21.2361H113.632V20.9861ZM107.872 20.9861L108.002 20.7722L103.898 18.2882L103.768 18.5021L103.639 18.716L107.743 21.2L107.872 20.9861ZM103.768 18.5021H104.018V7.59408H103.768H103.518V18.5021H103.768ZM125.368 10.1141H125.618V7.59408H125.368H125.118V10.1141H125.368ZM125.368 7.59408L125.498 7.38021L121.394 4.89621L121.264 5.11008L121.135 5.32396L125.239 7.80796L125.368 7.59408ZM121.264 5.11008V4.86008H115.396V5.11008V5.36008H121.264V5.11008ZM115.396 5.11008H115.146V8.49408H115.396H115.646V5.11008H115.396ZM115.396 8.49408V8.74408H120.832V8.49408V8.24408H115.396V8.49408ZM120.832 8.49408H120.582V10.1141H120.832H121.082V8.49408H120.832ZM120.832 10.1141V10.3641H125.368V10.1141V9.86408H120.832V10.1141ZM125.368 15.9821H125.118V18.5021H125.368H125.618V15.9821H125.368ZM125.368 18.5021L125.239 18.2882L121.135 20.7722L121.264 20.9861L121.394 21.2L125.498 18.716L125.368 18.5021ZM121.264 20.9861V20.7361H115.396V20.9861V21.2361H121.264V20.9861ZM115.396 20.9861H115.646V17.1701H115.396H115.146V20.9861H115.396ZM115.396 17.1701V17.4201H120.832V17.1701V16.9201H115.396V17.1701ZM120.832 17.1701H121.082V15.9821H120.832H120.582V17.1701H120.832ZM120.832 15.9821V16.2321H125.368V15.9821V15.7321H120.832V15.9821ZM131.12 13.9661L130.99 13.7522L130.87 13.8252V13.9661H131.12ZM131.12 18.5381H130.87V18.679L130.99 18.752L131.12 18.5381ZM135.224 21.0221L135.094 21.236L135.154 21.2721H135.224V21.0221ZM141.128 21.0221V21.2721H141.378V21.0221H141.128ZM141.128 17.2061H141.378V16.9561H141.128V17.2061ZM135.692 17.2061H135.442V17.4561H135.692V17.2061ZM135.692 14.2541V14.0041H135.442V14.2541H135.692ZM141.128 14.2541V14.5041H141.378V14.2541H141.128ZM141.128 11.4821H141.378V11.2321H141.128V11.4821ZM135.224 11.4821V11.2321H135.154L135.094 11.2682L135.224 11.4821ZM131.12 10.1501H130.87V10.4001H131.12V10.1501ZM135.692 10.1501V10.4001H135.942V10.1501H135.692ZM135.692 8.53008V8.28008H135.442V8.53008H135.692ZM141.128 8.53008V8.78008H141.378V8.53008H141.128ZM141.128 5.14608H141.378V4.89608H141.128V5.14608ZM135.224 5.14608V4.89608H135.153L135.093 4.93304L135.224 5.14608ZM131.12 7.66608L130.989 7.45304L130.87 7.52622V7.66608H131.12ZM152.72 7.66608H152.97V7.52622L152.851 7.45304L152.72 7.66608ZM152.72 21.0221V21.2721H152.97V21.0221H152.72ZM142.856 21.0221H142.606V21.2721H142.856V21.0221ZM142.856 17.2061V16.9561H142.606V17.2061H142.856ZM148.148 17.2061V17.4561H148.398V17.2061H148.148ZM148.148 14.2541H148.398V14.0041H148.148V14.2541ZM142.712 14.2541H142.462V14.5041H142.712V14.2541ZM142.712 11.4821V11.2321H142.462V11.4821H142.712ZM148.148 11.4821V11.7321H148.398V11.4821H148.148ZM148.148 8.53008H148.398V8.28008H148.148V8.53008ZM142.712 8.53008H142.462V8.78008H142.712V8.53008ZM142.712 5.14608V4.89608H142.462V5.14608H142.712ZM148.616 5.14608L148.747 4.93304L148.686 4.89608H148.616V5.14608ZM131.12 13.9661H130.87V18.5381H131.12H131.37V13.9661H131.12ZM131.12 18.5381L130.99 18.752L135.094 21.236L135.224 21.0221L135.353 20.8082L131.249 18.3242L131.12 18.5381ZM135.224 21.0221V21.2721H141.128V21.0221V20.7721H135.224V21.0221ZM141.128 21.0221H141.378V17.2061H141.128H140.878V21.0221H141.128ZM141.128 17.2061V16.9561H135.692V17.2061V17.4561H141.128V17.2061ZM135.692 17.2061H135.942V14.2541H135.692H135.442V17.2061H135.692ZM135.692 14.2541V14.5041H141.128V14.2541V14.0041H135.692V14.2541ZM141.128 14.2541H141.378V11.4821H141.128H140.878V14.2541H141.128ZM141.128 11.4821V11.2321H135.224V11.4821V11.7321H141.128V11.4821ZM135.224 11.4821L135.094 11.2682L130.99 13.7522L131.12 13.9661L131.249 14.18L135.353 11.696L135.224 11.4821ZM131.12 10.1501V10.4001H135.692V10.1501V9.90008H131.12V10.1501ZM135.692 10.1501H135.942V8.53008H135.692H135.442V10.1501H135.692ZM135.692 8.53008V8.78008H141.128V8.53008V8.28008H135.692V8.53008ZM141.128 8.53008H141.378V5.14608H141.128H140.878V8.53008H141.128ZM141.128 5.14608V4.89608H135.224V5.14608V5.39608H141.128V5.14608ZM135.224 5.14608L135.093 4.93304L130.989 7.45304L131.12 7.66608L131.251 7.87913L135.355 5.35913L135.224 5.14608ZM131.12 7.66608H130.87V10.1501H131.12H131.37V7.66608H131.12ZM152.72 7.66608H152.47V21.0221H152.72H152.97V7.66608H152.72ZM152.72 21.0221V20.7721H142.856V21.0221V21.2721H152.72V21.0221ZM142.856 21.0221H143.106V17.2061H142.856H142.606V21.0221H142.856ZM142.856 17.2061V17.4561H148.148V17.2061V16.9561H142.856V17.2061ZM148.148 17.2061H148.398V14.2541H148.148H147.898V17.2061H148.148ZM148.148 14.2541V14.0041H142.712V14.2541V14.5041H148.148V14.2541ZM142.712 14.2541H142.962V11.4821H142.712H142.462V14.2541H142.712ZM142.712 11.4821V11.7321H148.148V11.4821V11.2321H142.712V11.4821ZM148.148 11.4821H148.398V8.53008H148.148H147.898V11.4821H148.148ZM148.148 8.53008V8.28008H142.712V8.53008V8.78008H148.148V8.53008ZM142.712 8.53008H142.962V5.14608H142.712H142.462V8.53008H142.712ZM142.712 5.14608V5.39608H148.616V5.14608V4.89608H142.712V5.14608ZM148.616 5.14608L148.485 5.35913L152.589 7.87913L152.72 7.66608L152.851 7.45304L148.747 4.93304L148.616 5.14608ZM165.663 5.25408V5.00408H165.413V5.25408H165.663ZM171.063 5.25408H171.313V5.00408H171.063V5.25408ZM171.063 8.60208V8.85208H171.313V8.60208H171.063ZM165.663 8.60208H165.413V8.85208H165.663V8.60208ZM175.599 15.5861H175.849V15.3361H175.599V15.5861ZM175.599 18.5021L175.728 18.716L175.849 18.643V18.5021H175.599ZM171.495 20.9861V21.2361H171.565L171.624 21.2L171.495 20.9861ZM165.663 20.9861H165.413V21.2361H165.663V20.9861ZM165.663 17.2061V16.9561H165.413V17.2061H165.663ZM171.063 17.2061V17.4561H171.313V17.2061H171.063ZM171.063 15.5861V15.3361H170.813V15.5861H171.063ZM164.043 2.77008H164.293V2.34597L163.922 2.55135L164.043 2.77008ZM164.043 20.9861L163.922 21.205L164.293 21.4096V20.9861H164.043ZM159.543 18.5021H159.293V18.6496L159.422 18.721L159.543 18.5021ZM159.543 8.60208H159.793V8.34929L159.54 8.3521L159.543 8.60208ZM156.303 8.63808H156.053V8.89088L156.306 8.88807L156.303 8.63808ZM156.303 7.05408L156.182 6.83535L156.053 6.90672V7.05408H156.303ZM165.663 5.25408V5.50408H171.063V5.25408V5.00408H165.663V5.25408ZM171.063 5.25408H170.813V8.60208H171.063H171.313V5.25408H171.063ZM171.063 8.60208V8.35208H165.663V8.60208V8.85208H171.063V8.60208ZM165.663 8.60208H165.913V5.25408H165.663H165.413V8.60208H165.663ZM175.599 15.5861H175.349V18.5021H175.599H175.849V15.5861H175.599ZM175.599 18.5021L175.469 18.2882L171.365 20.7722L171.495 20.9861L171.624 21.2L175.728 18.716L175.599 18.5021ZM171.495 20.9861V20.7361H165.663V20.9861V21.2361H171.495V20.9861ZM165.663 20.9861H165.913V17.2061H165.663H165.413V20.9861H165.663ZM165.663 17.2061V17.4561H171.063V17.2061V16.9561H165.663V17.2061ZM171.063 17.2061H171.313V15.5861H171.063H170.813V17.2061H171.063ZM171.063 15.5861V15.8361H175.599V15.5861V15.3361H171.063V15.5861ZM164.043 2.77008H163.793V17.2061H164.043H164.293V2.77008H164.043ZM164.043 17.2061H163.793V20.9861H164.043H164.293V17.2061H164.043ZM164.043 20.9861L164.164 20.7672L159.664 18.2832L159.543 18.5021L159.422 18.721L163.922 21.205L164.043 20.9861ZM159.543 18.5021H159.793V8.60208H159.543H159.293V18.5021H159.543ZM159.543 8.60208L159.54 8.3521L156.3 8.3881L156.303 8.63808L156.306 8.88807L159.546 8.85207L159.543 8.60208ZM156.303 8.63808H156.553V7.05408H156.303H156.053V8.63808H156.303ZM156.303 7.05408L156.424 7.27281L164.164 2.98881L164.043 2.77008L163.922 2.55135L156.182 6.83535L156.303 7.05408ZM184.101 5.14608H184.351V4.89608H184.101V5.14608ZM184.101 21.0221V21.2721H184.351V21.0221H184.101ZM179.565 21.0221H179.315V21.2721H179.565V21.0221ZM179.565 5.14608V4.89608H179.315V5.14608H179.565ZM184.029 3.67008V3.92008H184.279V3.67008H184.029ZM179.565 3.67008H179.315V3.92008H179.565V3.67008ZM179.565 0.322084V0.072084H179.315V0.322084H179.565ZM184.029 0.322084H184.279V0.072084H184.029V0.322084ZM184.101 5.14608H183.851V21.0221H184.101H184.351V5.14608H184.101ZM184.101 21.0221V20.7721H179.565V21.0221V21.2721H184.101V21.0221ZM179.565 21.0221H179.815V5.14608H179.565H179.315V21.0221H179.565ZM179.565 5.14608V5.39608H184.101V5.14608V4.89608H179.565V5.14608ZM184.029 3.67008V3.42008H179.565V3.67008V3.92008H184.029V3.67008ZM179.565 3.67008H179.815V0.322084H179.565H179.315V3.67008H179.565ZM179.565 0.322084V0.572084H184.029V0.322084V0.072084H179.565V0.322084ZM184.029 0.322084H183.779V3.67008H184.029H184.279V0.322084H184.029ZM189.866 7.63008L189.739 7.41474L189.616 7.48728V7.63008H189.866ZM189.866 18.4661H189.616V18.6089L189.739 18.6814L189.866 18.4661ZM194.078 20.9501L193.951 21.1654L194.01 21.2001H194.078V20.9501ZM199.766 20.9501V21.2001H200.016V20.9501H199.766ZM199.766 17.0981H200.016V16.8481H199.766V17.0981ZM194.366 17.0981H194.116V17.3481H194.366V17.0981ZM194.366 8.53008V8.28008H194.116V8.53008H194.366ZM199.766 8.53008V8.78008H200.016V8.53008H199.766ZM199.766 5.14608H200.016V4.89608H199.766V5.14608ZM194.078 5.14608V4.89608H194.01L193.951 4.93074L194.078 5.14608ZM210.998 7.63008H211.248V7.48728L211.125 7.41474L210.998 7.63008ZM210.998 18.4661L211.125 18.6814L211.248 18.6089V18.4661H210.998ZM206.786 20.9501V21.2001H206.854L206.913 21.1654L206.786 20.9501ZM201.062 20.9501H200.812V21.2001H201.062V20.9501ZM201.062 17.0981V16.8481H200.812V17.0981H201.062ZM206.498 17.0981V17.3481H206.748V17.0981H206.498ZM206.498 8.53008H206.748V8.28008H206.498V8.53008ZM201.062 8.53008H200.812V8.78008H201.062V8.53008ZM201.062 5.14608V4.89608H200.812V5.14608H201.062ZM206.786 5.14608L206.913 4.93074L206.854 4.89608H206.786V5.14608ZM189.866 7.63008H189.616V18.4661H189.866H190.116V7.63008H189.866ZM189.866 18.4661L189.739 18.6814L193.951 21.1654L194.078 20.9501L194.205 20.7347L189.993 18.2507L189.866 18.4661ZM194.078 20.9501V21.2001H199.766V20.9501V20.7001H194.078V20.9501ZM199.766 20.9501H200.016V17.0981H199.766H199.516V20.9501H199.766ZM199.766 17.0981V16.8481H194.366V17.0981V17.3481H199.766V17.0981ZM194.366 17.0981H194.616V8.53008H194.366H194.116V17.0981H194.366ZM194.366 8.53008V8.78008H199.766V8.53008V8.28008H194.366V8.53008ZM199.766 8.53008H200.016V5.14608H199.766H199.516V8.53008H199.766ZM199.766 5.14608V4.89608H194.078V5.14608V5.39608H199.766V5.14608ZM194.078 5.14608L193.951 4.93074L189.739 7.41474L189.866 7.63008L189.993 7.84542L194.205 5.36142L194.078 5.14608ZM210.998 7.63008H210.748V18.4661H210.998H211.248V7.63008H210.998ZM210.998 18.4661L210.871 18.2507L206.659 20.7347L206.786 20.9501L206.913 21.1654L211.125 18.6814L210.998 18.4661ZM206.786 20.9501V20.7001H201.062V20.9501V21.2001H206.786V20.9501ZM201.062 20.9501H201.312V17.0981H201.062H200.812V20.9501H201.062ZM201.062 17.0981V17.3481H206.498V17.0981V16.8481H201.062V17.0981ZM206.498 17.0981H206.748V8.53008H206.498H206.248V17.0981H206.498ZM206.498 8.53008V8.28008H201.062V8.53008V8.78008H206.498V8.53008ZM201.062 8.53008H201.312V5.14608H201.062H200.812V8.53008H201.062ZM201.062 5.14608V5.39608H206.786V5.14608V4.89608H201.062V5.14608ZM206.786 5.14608L206.659 5.36142L210.871 7.84542L210.998 7.63008L211.125 7.41474L206.913 4.93074L206.786 5.14608ZM217.48 5.14608V4.89608H217.23V5.14608H217.48ZM222.052 5.14608H222.302V4.89608H222.052V5.14608ZM222.052 6.69408H221.802V7.02706L222.122 6.93416L222.052 6.69408ZM227.38 5.14608H227.63V4.81311L227.311 4.90601L227.38 5.14608ZM227.38 8.53008V8.78008H227.63V8.53008H227.38ZM222.052 8.53008V8.28008H221.802V8.53008H222.052ZM222.052 20.9501V21.2001H222.302V20.9501H222.052ZM217.48 20.9501H217.23V21.2001H217.48V20.9501ZM239.044 7.63008H239.294V7.48667L239.171 7.41427L239.044 7.63008ZM234.796 5.14608L234.923 4.93027L234.864 4.89608H234.796V5.14608ZM229.108 5.14608V4.89608H228.858V5.14608H229.108ZM229.108 8.53008H228.858V8.78008H229.108V8.53008ZM234.544 8.53008H234.794V8.28008H234.544V8.53008ZM234.544 20.9501H234.294V21.2001H234.544V20.9501ZM239.044 20.9501V21.2001H239.294V20.9501H239.044ZM217.48 5.14608V5.39608H222.052V5.14608V4.89608H217.48V5.14608ZM222.052 5.14608H221.802V6.69408H222.052H222.302V5.14608H222.052ZM222.052 6.69408L222.122 6.93416L227.45 5.38616L227.38 5.14608L227.311 4.90601L221.983 6.45401L222.052 6.69408ZM227.38 5.14608H227.13V8.53008H227.38H227.63V5.14608H227.38ZM227.38 8.53008V8.28008H222.052V8.53008V8.78008H227.38V8.53008ZM222.052 8.53008H221.802V20.9501H222.052H222.302V8.53008H222.052ZM222.052 20.9501V20.7001H217.48V20.9501V21.2001H222.052V20.9501ZM217.48 20.9501H217.73V5.14608H217.48H217.23V20.9501H217.48ZM239.044 7.63008L239.171 7.41427L234.923 4.93027L234.796 5.14608L234.67 5.36189L238.918 7.8459L239.044 7.63008ZM234.796 5.14608V4.89608H229.108V5.14608V5.39608H234.796V5.14608ZM229.108 5.14608H228.858V8.53008H229.108H229.358V5.14608H229.108ZM229.108 8.53008V8.78008H234.544V8.53008V8.28008H229.108V8.53008ZM234.544 8.53008H234.294V20.9501H234.544H234.794V8.53008H234.544ZM234.544 20.9501V21.2001H239.044V20.9501V20.7001H234.544V20.9501ZM239.044 20.9501H239.294V7.63008H239.044H238.794V20.9501H239.044ZM266.623 18.5021L266.752 18.716L266.873 18.643V18.5021H266.623ZM262.519 20.9861V21.2361H262.588L262.648 21.2L262.519 20.9861ZM256.723 20.9861H256.473V21.2361H256.723V20.9861ZM256.723 17.2061V16.9561H256.473V17.2061H256.723ZM262.267 17.2061V17.4561H262.517V17.2061H262.267ZM262.267 14.2901H262.517V14.0401H262.267V14.2901ZM256.831 14.2901H256.581V14.5401H256.831V14.2901ZM256.831 11.4821V11.2321H256.581V11.4821H256.831ZM262.519 11.4821L262.649 11.269L262.589 11.2321H262.519V11.4821ZM266.623 14.0021H266.873V13.8622L266.753 13.789L266.623 14.0021ZM245.167 7.73808L245.037 7.52421L244.917 7.59717V7.73808H245.167ZM249.271 5.25408V5.00408H249.201L249.141 5.04021L249.271 5.25408ZM255.103 5.25408H255.353V5.00408H255.103V5.25408ZM255.103 8.60208V8.85208H255.353V8.60208H255.103ZM249.703 8.60208V8.35208H249.453V8.60208H249.703ZM249.703 11.4821H249.453V11.7321H249.703V11.4821ZM255.103 11.4821H255.353V11.2321H255.103V11.4821ZM255.103 14.2901V14.5401H255.353V14.2901H255.103ZM249.271 14.2901L249.141 14.504L249.201 14.5401H249.271V14.2901ZM245.167 11.8061H244.917V11.947L245.037 12.02L245.167 11.8061ZM249.703 15.9821H249.953V15.7321H249.703V15.9821ZM249.703 17.2061H249.453V17.4561H249.703V17.2061ZM255.103 17.2061H255.353V16.9561H255.103V17.2061ZM255.103 20.9861V21.2361H255.353V20.9861H255.103ZM249.271 20.9861L249.141 21.2L249.201 21.2361H249.271V20.9861ZM245.167 18.5021H244.917V18.643L245.037 18.716L245.167 18.5021ZM245.167 15.9821V15.7321H244.917V15.9821H245.167ZM262.123 10.1501H261.873V10.4001H262.123V10.1501ZM262.123 8.60208H262.373V8.35208H262.123V8.60208ZM256.723 8.60208H256.473V8.85208H256.723V8.60208ZM256.723 5.25408V5.00408H256.473V5.25408H256.723ZM262.519 5.25408L262.648 5.04021L262.588 5.00408H262.519V5.25408ZM266.623 7.73808H266.873V7.59717L266.752 7.52421L266.623 7.73808ZM266.623 10.1501V10.4001H266.873V10.1501H266.623ZM266.623 18.5021L266.493 18.2882L262.389 20.7722L262.519 20.9861L262.648 21.2L266.752 18.716L266.623 18.5021ZM262.519 20.9861V20.7361H256.723V20.9861V21.2361H262.519V20.9861ZM256.723 20.9861H256.973V17.2061H256.723H256.473V20.9861H256.723ZM256.723 17.2061V17.4561H262.267V17.2061V16.9561H256.723V17.2061ZM262.267 17.2061H262.517V14.2901H262.267H262.017V17.2061H262.267ZM262.267 14.2901V14.0401H256.831V14.2901V14.5401H262.267V14.2901ZM256.831 14.2901H257.081V11.4821H256.831H256.581V14.2901H256.831ZM256.831 11.4821V11.7321H262.519V11.4821V11.2321H256.831V11.4821ZM262.519 11.4821L262.388 11.6951L266.492 14.2151L266.623 14.0021L266.753 13.789L262.649 11.269L262.519 11.4821ZM266.623 14.0021H266.373V18.5021H266.623H266.873V14.0021H266.623ZM245.167 7.73808L245.296 7.95196L249.4 5.46796L249.271 5.25408L249.141 5.04021L245.037 7.52421L245.167 7.73808ZM249.271 5.25408V5.50408H255.103V5.25408V5.00408H249.271V5.25408ZM255.103 5.25408H254.853V8.60208H255.103H255.353V5.25408H255.103ZM255.103 8.60208V8.35208H249.703V8.60208V8.85208H255.103V8.60208ZM249.703 8.60208H249.453V11.4821H249.703H249.953V8.60208H249.703ZM249.703 11.4821V11.7321H255.103V11.4821V11.2321H249.703V11.4821ZM255.103 11.4821H254.853V14.2901H255.103H255.353V11.4821H255.103ZM255.103 14.2901V14.0401H249.271V14.2901V14.5401H255.103V14.2901ZM249.271 14.2901L249.4 14.0762L245.296 11.5922L245.167 11.8061L245.037 12.02L249.141 14.504L249.271 14.2901ZM245.167 11.8061H245.417V7.73808H245.167H244.917V11.8061H245.167ZM249.703 15.9821H249.453V17.2061H249.703H249.953V15.9821H249.703ZM249.703 17.2061V17.4561H255.103V17.2061V16.9561H249.703V17.2061ZM255.103 17.2061H254.853V20.9861H255.103H255.353V17.2061H255.103ZM255.103 20.9861V20.7361H249.271V20.9861V21.2361H255.103V20.9861ZM249.271 20.9861L249.4 20.7722L245.296 18.2882L245.167 18.5021L245.037 18.716L249.141 21.2L249.271 20.9861ZM245.167 18.5021H245.417V15.9821H245.167H244.917V18.5021H245.167ZM245.167 15.9821V16.2321H249.703V15.9821V15.7321H245.167V15.9821ZM262.123 10.1501H262.373V8.60208H262.123H261.873V10.1501H262.123ZM262.123 8.60208V8.35208H256.723V8.60208V8.85208H262.123V8.60208ZM256.723 8.60208H256.973V5.25408H256.723H256.473V8.60208H256.723ZM256.723 5.25408V5.50408H262.519V5.25408V5.00408H256.723V5.25408ZM262.519 5.25408L262.389 5.46796L266.493 7.95196L266.623 7.73808L266.752 7.52421L262.648 5.04021L262.519 5.25408ZM266.623 7.73808H266.373V10.1501H266.623H266.873V7.73808H266.623ZM266.623 10.1501V9.90008H262.123V10.1501V10.4001H266.623V10.1501Z" fill="white" mask="url(#path-1-outside-1_257_15)"/>
</svg>
