<svg width="126" height="22" viewBox="0 0 126 22" fill="none" xmlns="http://www.w3.org/2000/svg">
<mask id="path-1-outside-1_255_13" maskUnits="userSpaceOnUse" x="-0.27002" y="-0.0500488" width="127" height="22" fill="black">
<rect fill="white" x="-0.27002" y="-0.0500488" width="127" height="22"/>
<path d="M0.24998 2.73395V10.33L4.35398 12.778H11.77V8.56595H4.64198V4.49795H11.77V0.249949H4.35398L0.24998 2.73395ZM25.054 11.05V18.502L20.806 20.95H13.534V16.882H20.518V12.778H13.39V8.56595H20.806L25.054 11.05ZM4.78598 14.398H0.24998V18.502L4.46198 20.95H11.77V16.882H4.78598V14.398ZM25.054 6.94595H20.518V4.49795H13.39V0.249949H20.806L25.054 2.73395V6.94595ZM37.2976 5.21795H42.6976V8.56595H37.2976V5.21795ZM47.2336 15.55V18.466L43.1296 20.95H37.2976V17.17H42.6976V15.55H47.2336ZM35.6776 2.73395V17.17V20.95L31.1776 18.466V8.56595L27.9376 8.60195V7.01795L35.6776 2.73395ZM51.1998 13.93V18.502L55.3038 20.986H61.2078V17.17H55.7718V14.218H61.2078V11.446H55.3038L51.1998 13.93ZM51.1998 10.114H55.7718V8.49395H61.2078V5.10995H55.3038L51.1998 7.62995V10.114ZM72.7998 7.62995V20.986H62.9358V17.17H68.2278V14.218H62.7918V11.446H68.2278V8.49395H62.7918V5.10995H68.6958L72.7998 7.62995ZM78.9029 7.55795L83.0069 5.07395H88.9109V8.45795H83.4749V17.134H88.7669V20.95H83.0069L78.9029 18.466V7.55795ZM100.503 10.078V7.55795L96.399 5.07395H90.531V8.45795H95.9669V10.078H100.503ZM100.503 15.946V18.466L96.399 20.95H90.531V17.134H95.9669V15.946H100.503ZM104.021 0.249949H108.557V11.518H110.573V14.146H108.557V20.986H104.021V0.249949ZM116.477 12.67L124.721 7.23395L121.733 5.10995L112.373 11.518V14.146L121.445 20.986L125.513 18.502L116.477 12.67Z"/>
</mask>
<path d="M0.24998 2.73395V10.33L4.35398 12.778H11.77V8.56595H4.64198V4.49795H11.77V0.249949H4.35398L0.24998 2.73395ZM25.054 11.05V18.502L20.806 20.95H13.534V16.882H20.518V12.778H13.39V8.56595H20.806L25.054 11.05ZM4.78598 14.398H0.24998V18.502L4.46198 20.95H11.77V16.882H4.78598V14.398ZM25.054 6.94595H20.518V4.49795H13.39V0.249949H20.806L25.054 2.73395V6.94595ZM37.2976 5.21795H42.6976V8.56595H37.2976V5.21795ZM47.2336 15.55V18.466L43.1296 20.95H37.2976V17.17H42.6976V15.55H47.2336ZM35.6776 2.73395V17.17V20.95L31.1776 18.466V8.56595L27.9376 8.60195V7.01795L35.6776 2.73395ZM51.1998 13.93V18.502L55.3038 20.986H61.2078V17.17H55.7718V14.218H61.2078V11.446H55.3038L51.1998 13.93ZM51.1998 10.114H55.7718V8.49395H61.2078V5.10995H55.3038L51.1998 7.62995V10.114ZM72.7998 7.62995V20.986H62.9358V17.17H68.2278V14.218H62.7918V11.446H68.2278V8.49395H62.7918V5.10995H68.6958L72.7998 7.62995ZM78.9029 7.55795L83.0069 5.07395H88.9109V8.45795H83.4749V17.134H88.7669V20.95H83.0069L78.9029 18.466V7.55795ZM100.503 10.078V7.55795L96.399 5.07395H90.531V8.45795H95.9669V10.078H100.503ZM100.503 15.946V18.466L96.399 20.95H90.531V17.134H95.9669V15.946H100.503ZM104.021 0.249949H108.557V11.518H110.573V14.146H108.557V20.986H104.021V0.249949ZM116.477 12.67L124.721 7.23395L121.733 5.10995L112.373 11.518V14.146L121.445 20.986L125.513 18.502L116.477 12.67Z" fill="#9C38E8"/>
<path d="M0.24998 2.73395L0.12053 2.52007L-1.95205e-05 2.59304V2.73395H0.24998ZM0.24998 10.33H-1.95205e-05V10.4719L0.121911 10.5447L0.24998 10.33ZM4.35398 12.778L4.22591 12.9927L4.28508 13.028H4.35398V12.778ZM11.77 12.778V13.028H12.02V12.778H11.77ZM11.77 8.56595H12.02V8.31595H11.77V8.56595ZM4.64198 8.56595H4.39198V8.81595H4.64198V8.56595ZM4.64198 4.49795V4.24795H4.39198V4.49795H4.64198ZM11.77 4.49795V4.74795H12.02V4.49795H11.77ZM11.77 0.249949H12.02V-5.05447e-05H11.77V0.249949ZM4.35398 0.249949V-5.05447e-05H4.28422L4.22453 0.0360744L4.35398 0.249949ZM25.054 11.05H25.304V10.9065L25.1802 10.8341L25.054 11.05ZM25.054 18.502L25.1788 18.7186L25.304 18.6464V18.502H25.054ZM20.806 20.95V21.2H20.8729L20.9308 21.1666L20.806 20.95ZM13.534 20.95H13.284V21.2H13.534V20.95ZM13.534 16.882V16.632H13.284V16.882H13.534ZM20.518 16.882V17.132H20.768V16.882H20.518ZM20.518 12.778H20.768V12.528H20.518V12.778ZM13.39 12.778H13.14V13.028H13.39V12.778ZM13.39 8.56595V8.31595H13.14V8.56595H13.39ZM20.806 8.56595L20.9322 8.35014L20.8737 8.31595H20.806V8.56595ZM4.78598 14.398H5.03598V14.148H4.78598V14.398ZM0.24998 14.398V14.148H-1.95205e-05V14.398H0.24998ZM0.24998 18.502H-1.95205e-05V18.6458L0.124357 18.7181L0.24998 18.502ZM4.46198 20.95L4.33636 21.1661L4.39461 21.2H4.46198V20.95ZM11.77 20.95V21.2H12.02V20.95H11.77ZM11.77 16.882H12.02V16.632H11.77V16.882ZM4.78598 16.882H4.53598V17.132H4.78598V16.882ZM25.054 6.94595V7.19595H25.304V6.94595H25.054ZM20.518 6.94595H20.268V7.19595H20.518V6.94595ZM20.518 4.49795H20.768V4.24795H20.518V4.49795ZM13.39 4.49795H13.14V4.74795H13.39V4.49795ZM13.39 0.249949V-5.05447e-05H13.14V0.249949H13.39ZM20.806 0.249949L20.9322 0.0341375L20.8737 -5.05447e-05H20.806V0.249949ZM25.054 2.73395H25.304V2.59053L25.1802 2.51814L25.054 2.73395ZM0.24998 2.73395H-1.95205e-05V10.33H0.24998H0.49998V2.73395H0.24998ZM0.24998 10.33L0.121911 10.5447L4.22591 12.9927L4.35398 12.778L4.48205 12.5632L0.37805 10.1152L0.24998 10.33ZM4.35398 12.778V13.028H11.77V12.778V12.528H4.35398V12.778ZM11.77 12.778H12.02V8.56595H11.77H11.52V12.778H11.77ZM11.77 8.56595V8.31595H4.64198V8.56595V8.81595H11.77V8.56595ZM4.64198 8.56595H4.89198V4.49795H4.64198H4.39198V8.56595H4.64198ZM4.64198 4.49795V4.74795H11.77V4.49795V4.24795H4.64198V4.49795ZM11.77 4.49795H12.02V0.249949H11.77H11.52V4.49795H11.77ZM11.77 0.249949V-5.05447e-05H4.35398V0.249949V0.499949H11.77V0.249949ZM4.35398 0.249949L4.22453 0.0360744L0.12053 2.52007L0.24998 2.73395L0.379431 2.94782L4.48343 0.463824L4.35398 0.249949ZM25.054 11.05H24.804V18.502H25.054H25.304V11.05H25.054ZM25.054 18.502L24.9292 18.2853L20.6812 20.7333L20.806 20.95L20.9308 21.1666L25.1788 18.7186L25.054 18.502ZM20.806 20.95V20.7H13.534V20.95V21.2H20.806V20.95ZM13.534 20.95H13.784V16.882H13.534H13.284V20.95H13.534ZM13.534 16.882V17.132H20.518V16.882V16.632H13.534V16.882ZM20.518 16.882H20.768V12.778H20.518H20.268V16.882H20.518ZM20.518 12.778V12.528H13.39V12.778V13.028H20.518V12.778ZM13.39 12.778H13.64V8.56595H13.39H13.14V12.778H13.39ZM13.39 8.56595V8.81595H20.806V8.56595V8.31595H13.39V8.56595ZM20.806 8.56595L20.6798 8.78176L24.9278 11.2658L25.054 11.05L25.1802 10.8341L20.9322 8.35014L20.806 8.56595ZM4.78598 14.398V14.148H0.24998V14.398V14.648H4.78598V14.398ZM0.24998 14.398H-1.95205e-05V18.502H0.24998H0.49998V14.398H0.24998ZM0.24998 18.502L0.124357 18.7181L4.33636 21.1661L4.46198 20.95L4.5876 20.7338L0.375603 18.2858L0.24998 18.502ZM4.46198 20.95V21.2H11.77V20.95V20.7H4.46198V20.95ZM11.77 20.95H12.02V16.882H11.77H11.52V20.95H11.77ZM11.77 16.882V16.632H4.78598V16.882V17.132H11.77V16.882ZM4.78598 16.882H5.03598V14.398H4.78598H4.53598V16.882H4.78598ZM25.054 6.94595V6.69595H20.518V6.94595V7.19595H25.054V6.94595ZM20.518 6.94595H20.768V4.49795H20.518H20.268V6.94595H20.518ZM20.518 4.49795V4.24795H13.39V4.49795V4.74795H20.518V4.49795ZM13.39 4.49795H13.64V0.249949H13.39H13.14V4.49795H13.39ZM13.39 0.249949V0.499949H20.806V0.249949V-5.05447e-05H13.39V0.249949ZM20.806 0.249949L20.6798 0.465761L24.9278 2.94976L25.054 2.73395L25.1802 2.51814L20.9322 0.0341375L20.806 0.249949ZM25.054 2.73395H24.804V6.94595H25.054H25.304V2.73395H25.054ZM37.2976 5.21795V4.96795H37.0476V5.21795H37.2976ZM42.6976 5.21795H42.9476V4.96795H42.6976V5.21795ZM42.6976 8.56595V8.81595H42.9476V8.56595H42.6976ZM37.2976 8.56595H37.0476V8.81595H37.2976V8.56595ZM47.2336 15.55H47.4836V15.3H47.2336V15.55ZM47.2336 18.466L47.3631 18.6798L47.4836 18.6069V18.466H47.2336ZM43.1296 20.95V21.2H43.1994L43.2591 21.1638L43.1296 20.95ZM37.2976 20.95H37.0476V21.2H37.2976V20.95ZM37.2976 17.17V16.92H37.0476V17.17H37.2976ZM42.6976 17.17V17.42H42.9476V17.17H42.6976ZM42.6976 15.55V15.3H42.4476V15.55H42.6976ZM35.6776 2.73395H35.9276V2.30984L35.5566 2.51522L35.6776 2.73395ZM35.6776 20.95L35.5568 21.1688L35.9276 21.3735V20.95H35.6776ZM31.1776 18.466H30.9276V18.6135L31.0568 18.6848L31.1776 18.466ZM31.1776 8.56595H31.4276V8.31316L31.1749 8.31597L31.1776 8.56595ZM27.9376 8.60195H27.6876V8.85474L27.9404 8.85193L27.9376 8.60195ZM27.9376 7.01795L27.8166 6.79922L27.6876 6.87058V7.01795H27.9376ZM37.2976 5.21795V5.46795H42.6976V5.21795V4.96795H37.2976V5.21795ZM42.6976 5.21795H42.4476V8.56595H42.6976H42.9476V5.21795H42.6976ZM42.6976 8.56595V8.31595H37.2976V8.56595V8.81595H42.6976V8.56595ZM37.2976 8.56595H37.5476V5.21795H37.2976H37.0476V8.56595H37.2976ZM47.2336 15.55H46.9836V18.466H47.2336H47.4836V15.55H47.2336ZM47.2336 18.466L47.1042 18.2521L43.0002 20.7361L43.1296 20.95L43.2591 21.1638L47.3631 18.6798L47.2336 18.466ZM43.1296 20.95V20.7H37.2976V20.95V21.2H43.1296V20.95ZM37.2976 20.95H37.5476V17.17H37.2976H37.0476V20.95H37.2976ZM37.2976 17.17V17.42H42.6976V17.17V16.92H37.2976V17.17ZM42.6976 17.17H42.9476V15.55H42.6976H42.4476V17.17H42.6976ZM42.6976 15.55V15.8H47.2336V15.55V15.3H42.6976V15.55ZM35.6776 2.73395H35.4276V17.17H35.6776H35.9276V2.73395H35.6776ZM35.6776 17.17H35.4276V20.95H35.6776H35.9276V17.17H35.6776ZM35.6776 20.95L35.7985 20.7311L31.2985 18.2471L31.1776 18.466L31.0568 18.6848L35.5568 21.1688L35.6776 20.95ZM31.1776 18.466H31.4276V8.56595H31.1776H30.9276V18.466H31.1776ZM31.1776 8.56595L31.1749 8.31597L27.9349 8.35197L27.9376 8.60195L27.9404 8.85193L31.1804 8.81594L31.1776 8.56595ZM27.9376 8.60195H28.1876V7.01795H27.9376H27.6876V8.60195H27.9376ZM27.9376 7.01795L28.0587 7.23668L35.7987 2.95268L35.6776 2.73395L35.5566 2.51522L27.8166 6.79922L27.9376 7.01795ZM51.1998 13.93L51.0704 13.7161L50.9498 13.789V13.93H51.1998ZM51.1998 18.502H50.9498V18.6429L51.0704 18.7158L51.1998 18.502ZM55.3038 20.986L55.1744 21.1998L55.2341 21.236H55.3038V20.986ZM61.2078 20.986V21.236H61.4578V20.986H61.2078ZM61.2078 17.17H61.4578V16.92H61.2078V17.17ZM55.7718 17.17H55.5218V17.42H55.7718V17.17ZM55.7718 14.218V13.968H55.5218V14.218H55.7718ZM61.2078 14.218V14.468H61.4578V14.218H61.2078ZM61.2078 11.446H61.4578V11.196H61.2078V11.446ZM55.3038 11.446V11.196H55.2341L55.1744 11.2321L55.3038 11.446ZM51.1998 10.114H50.9498V10.364H51.1998V10.114ZM55.7718 10.114V10.364H56.0218V10.114H55.7718ZM55.7718 8.49395V8.24395H55.5218V8.49395H55.7718ZM61.2078 8.49395V8.74395H61.4578V8.49395H61.2078ZM61.2078 5.10995H61.4578V4.85995H61.2078V5.10995ZM55.3038 5.10995V4.85995H55.2332L55.173 4.89691L55.3038 5.10995ZM51.1998 7.62995L51.069 7.41691L50.9498 7.49009V7.62995H51.1998ZM72.7998 7.62995H73.0498V7.49009L72.9306 7.41691L72.7998 7.62995ZM72.7998 20.986V21.236H73.0498V20.986H72.7998ZM62.9358 20.986H62.6858V21.236H62.9358V20.986ZM62.9358 17.17V16.92H62.6858V17.17H62.9358ZM68.2278 17.17V17.42H68.4778V17.17H68.2278ZM68.2278 14.218H68.4778V13.968H68.2278V14.218ZM62.7918 14.218H62.5418V14.468H62.7918V14.218ZM62.7918 11.446V11.196H62.5418V11.446H62.7918ZM68.2278 11.446V11.696H68.4778V11.446H68.2278ZM68.2278 8.49395H68.4778V8.24395H68.2278V8.49395ZM62.7918 8.49395H62.5418V8.74395H62.7918V8.49395ZM62.7918 5.10995V4.85995H62.5418V5.10995H62.7918ZM68.6958 5.10995L68.8266 4.89691L68.7665 4.85995H68.6958V5.10995ZM51.1998 13.93H50.9498V18.502H51.1998H51.4498V13.93H51.1998ZM51.1998 18.502L51.0704 18.7158L55.1744 21.1998L55.3038 20.986L55.4333 20.7721L51.3293 18.2881L51.1998 18.502ZM55.3038 20.986V21.236H61.2078V20.986V20.736H55.3038V20.986ZM61.2078 20.986H61.4578V17.17H61.2078H60.9578V20.986H61.2078ZM61.2078 17.17V16.92H55.7718V17.17V17.42H61.2078V17.17ZM55.7718 17.17H56.0218V14.218H55.7718H55.5218V17.17H55.7718ZM55.7718 14.218V14.468H61.2078V14.218V13.968H55.7718V14.218ZM61.2078 14.218H61.4578V11.446H61.2078H60.9578V14.218H61.2078ZM61.2078 11.446V11.196H55.3038V11.446V11.696H61.2078V11.446ZM55.3038 11.446L55.1744 11.2321L51.0704 13.7161L51.1998 13.93L51.3293 14.1438L55.4333 11.6598L55.3038 11.446ZM51.1998 10.114V10.364H55.7718V10.114V9.86395H51.1998V10.114ZM55.7718 10.114H56.0218V8.49395H55.7718H55.5218V10.114H55.7718ZM55.7718 8.49395V8.74395H61.2078V8.49395V8.24395H55.7718V8.49395ZM61.2078 8.49395H61.4578V5.10995H61.2078H60.9578V8.49395H61.2078ZM61.2078 5.10995V4.85995H55.3038V5.10995V5.35995H61.2078V5.10995ZM55.3038 5.10995L55.173 4.89691L51.069 7.41691L51.1998 7.62995L51.3306 7.84299L55.4346 5.32299L55.3038 5.10995ZM51.1998 7.62995H50.9498V10.114H51.1998H51.4498V7.62995H51.1998ZM72.7998 7.62995H72.5498V20.986H72.7998H73.0498V7.62995H72.7998ZM72.7998 20.986V20.736H62.9358V20.986V21.236H72.7998V20.986ZM62.9358 20.986H63.1858V17.17H62.9358H62.6858V20.986H62.9358ZM62.9358 17.17V17.42H68.2278V17.17V16.92H62.9358V17.17ZM68.2278 17.17H68.4778V14.218H68.2278H67.9778V17.17H68.2278ZM68.2278 14.218V13.968H62.7918V14.218V14.468H68.2278V14.218ZM62.7918 14.218H63.0418V11.446H62.7918H62.5418V14.218H62.7918ZM62.7918 11.446V11.696H68.2278V11.446V11.196H62.7918V11.446ZM68.2278 11.446H68.4778V8.49395H68.2278H67.9778V11.446H68.2278ZM68.2278 8.49395V8.24395H62.7918V8.49395V8.74395H68.2278V8.49395ZM62.7918 8.49395H63.0418V5.10995H62.7918H62.5418V8.49395H62.7918ZM62.7918 5.10995V5.35995H68.6958V5.10995V4.85995H62.7918V5.10995ZM68.6958 5.10995L68.565 5.32299L72.669 7.84299L72.7998 7.62995L72.9306 7.41691L68.8266 4.89691L68.6958 5.10995ZM78.9029 7.55795L78.7735 7.34408L78.6529 7.41704V7.55795H78.9029ZM83.0069 5.07395V4.82395H82.9372L82.8775 4.86008L83.0069 5.07395ZM88.9109 5.07395H89.1609V4.82395H88.9109V5.07395ZM88.9109 8.45795V8.70795H89.1609V8.45795H88.9109ZM83.4749 8.45795V8.20795H83.2249V8.45795H83.4749ZM83.4749 17.134H83.2249V17.384H83.4749V17.134ZM88.7669 17.134H89.0169V16.884H88.7669V17.134ZM88.7669 20.95V21.2H89.0169V20.95H88.7669ZM83.0069 20.95L82.8775 21.1638L82.9372 21.2H83.0069V20.95ZM78.9029 18.466H78.6529V18.6069L78.7735 18.6798L78.9029 18.466ZM100.503 10.078V10.328H100.753V10.078H100.503ZM100.503 7.55795H100.753V7.41704L100.632 7.34408L100.503 7.55795ZM96.399 5.07395L96.5284 4.86008L96.4687 4.82395H96.399V5.07395ZM90.531 5.07395V4.82395H90.281V5.07395H90.531ZM90.531 8.45795H90.281V8.70795H90.531V8.45795ZM95.9669 8.45795H96.2169V8.20795H95.9669V8.45795ZM95.9669 10.078H95.7169V10.328H95.9669V10.078ZM100.503 15.946H100.753V15.696H100.503V15.946ZM100.503 18.466L100.632 18.6798L100.753 18.6069V18.466H100.503ZM96.399 20.95V21.2H96.4687L96.5284 21.1638L96.399 20.95ZM90.531 20.95H90.281V21.2H90.531V20.95ZM90.531 17.134V16.884H90.281V17.134H90.531ZM95.9669 17.134V17.384H96.2169V17.134H95.9669ZM95.9669 15.946V15.696H95.7169V15.946H95.9669ZM78.9029 7.55795L79.0324 7.77183L83.1364 5.28783L83.0069 5.07395L82.8775 4.86008L78.7735 7.34408L78.9029 7.55795ZM83.0069 5.07395V5.32395H88.9109V5.07395V4.82395H83.0069V5.07395ZM88.9109 5.07395H88.6609V8.45795H88.9109H89.1609V5.07395H88.9109ZM88.9109 8.45795V8.20795H83.4749V8.45795V8.70795H88.9109V8.45795ZM83.4749 8.45795H83.2249V17.134H83.4749H83.7249V8.45795H83.4749ZM83.4749 17.134V17.384H88.7669V17.134V16.884H83.4749V17.134ZM88.7669 17.134H88.5169V20.95H88.7669H89.0169V17.134H88.7669ZM88.7669 20.95V20.7H83.0069V20.95V21.2H88.7669V20.95ZM83.0069 20.95L83.1364 20.7361L79.0324 18.2521L78.9029 18.466L78.7735 18.6798L82.8775 21.1638L83.0069 20.95ZM78.9029 18.466H79.1529V7.55795H78.9029H78.6529V18.466H78.9029ZM100.503 10.078H100.753V7.55795H100.503H100.253V10.078H100.503ZM100.503 7.55795L100.632 7.34408L96.5284 4.86008L96.399 5.07395L96.2695 5.28783L100.373 7.77183L100.503 7.55795ZM96.399 5.07395V4.82395H90.531V5.07395V5.32395H96.399V5.07395ZM90.531 5.07395H90.281V8.45795H90.531H90.781V5.07395H90.531ZM90.531 8.45795V8.70795H95.9669V8.45795V8.20795H90.531V8.45795ZM95.9669 8.45795H95.7169V10.078H95.9669H96.2169V8.45795H95.9669ZM95.9669 10.078V10.328H100.503V10.078V9.82795H95.9669V10.078ZM100.503 15.946H100.253V18.466H100.503H100.753V15.946H100.503ZM100.503 18.466L100.373 18.2521L96.2695 20.7361L96.399 20.95L96.5284 21.1638L100.632 18.6798L100.503 18.466ZM96.399 20.95V20.7H90.531V20.95V21.2H96.399V20.95ZM90.531 20.95H90.781V17.134H90.531H90.281V20.95H90.531ZM90.531 17.134V17.384H95.9669V17.134V16.884H90.531V17.134ZM95.9669 17.134H96.2169V15.946H95.9669H95.7169V17.134H95.9669ZM95.9669 15.946V16.196H100.503V15.946V15.696H95.9669V15.946ZM104.021 0.249949V-5.05447e-05H103.771V0.249949H104.021ZM108.557 0.249949H108.807V-5.05447e-05H108.557V0.249949ZM108.557 11.518H108.307V11.768H108.557V11.518ZM110.573 11.518H110.823V11.268H110.573V11.518ZM110.573 14.146V14.396H110.823V14.146H110.573ZM108.557 14.146V13.896H108.307V14.146H108.557ZM108.557 20.986V21.236H108.807V20.986H108.557ZM104.021 20.986H103.771V21.236H104.021V20.986ZM116.477 12.67L116.34 12.4612L116.02 12.6722L116.342 12.88L116.477 12.67ZM124.721 7.23395L124.859 7.44266L125.164 7.2417L124.866 7.03019L124.721 7.23395ZM121.733 5.10995L121.878 4.90619L121.736 4.80513L121.592 4.90366L121.733 5.10995ZM112.373 11.518L112.232 11.3117L112.123 11.3861V11.518H112.373ZM112.373 14.146H112.123V14.2706L112.223 14.3456L112.373 14.146ZM121.445 20.986L121.295 21.1856L121.431 21.2879L121.576 21.1993L121.445 20.986ZM125.513 18.502L125.644 18.7153L125.983 18.5078L125.649 18.2919L125.513 18.502ZM104.021 0.249949V0.499949H108.557V0.249949V-5.05447e-05H104.021V0.249949ZM108.557 0.249949H108.307V11.518H108.557H108.807V0.249949H108.557ZM108.557 11.518V11.768H110.573V11.518V11.268H108.557V11.518ZM110.573 11.518H110.323V14.146H110.573H110.823V11.518H110.573ZM110.573 14.146V13.896H108.557V14.146V14.396H110.573V14.146ZM108.557 14.146H108.307V20.986H108.557H108.807V14.146H108.557ZM108.557 20.986V20.736H104.021V20.986V21.236H108.557V20.986ZM104.021 20.986H104.271V0.249949H104.021H103.771V20.986H104.021ZM116.477 12.67L116.615 12.8787L124.859 7.44266L124.721 7.23395L124.584 7.02524L116.34 12.4612L116.477 12.67ZM124.721 7.23395L124.866 7.03019L121.878 4.90619L121.733 5.10995L121.589 5.31371L124.577 7.43772L124.721 7.23395ZM121.733 5.10995L121.592 4.90366L112.232 11.3117L112.373 11.518L112.515 11.7242L121.875 5.31624L121.733 5.10995ZM112.373 11.518H112.123V14.146H112.373H112.623V11.518H112.373ZM112.373 14.146L112.223 14.3456L121.295 21.1856L121.445 20.986L121.596 20.7863L112.524 13.9463L112.373 14.146ZM121.445 20.986L121.576 21.1993L125.644 18.7153L125.513 18.502L125.383 18.2886L121.315 20.7726L121.445 20.986ZM125.513 18.502L125.649 18.2919L116.613 12.4599L116.477 12.67L116.342 12.88L125.378 18.712L125.513 18.502Z" fill="white" mask="url(#path-1-outside-1_255_13)"/>
</svg>
